<?xml version="1.0" standalone="no"?>
<!DOCTYPE svg PUBLIC "-//W3C//DTD SVG 20010904//EN"
 "http://www.w3.org/TR/2001/REC-SVG-20010904/DTD/svg10.dtd">
<svg version="1.0" xmlns="http://www.w3.org/2000/svg"
 width="521.000000pt" height="620.000000pt" viewBox="0 0 521.000000 620.000000"
 preserveAspectRatio="xMidYMid meet">

<g transform="translate(0.000000,620.000000) scale(0.100000,-0.100000)"
fill="#000000" stroke="none">
<path d="M1873 5632 c-59 -21 -103 -43 -103 -50 0 -7 51 -105 113 -217 l112
-204 945 -1 945 0 197 188 c108 103 197 194 197 202 1 9 -36 37 -89 68 l-89
52 -1063 -1 -1063 0 -102 -37z"/>
<path d="M1571 5377 l-114 -152 -184 -915 c-100 -503 -183 -918 -183 -921 0
-12 168 -149 193 -158 21 -8 33 -4 79 30 29 22 54 44 56 49 2 5 36 33 75 61
40 29 73 53 75 54 3 2 352 1717 352 1731 0 21 -212 374 -223 373 -7 0 -63 -68
-126 -152z"/>
<path d="M4175 5339 l-169 -161 -168 -852 c-92 -468 -167 -856 -165 -863 1 -6
63 -65 137 -131 l135 -120 75 68 c41 38 91 86 111 107 l36 38 157 865 c86 476
156 876 156 890 0 32 -112 312 -126 317 -6 2 -86 -69 -179 -158z"/>
<path d="M1595 3305 c-55 -41 -106 -74 -113 -75 -12 0 -172 -118 -172 -126 0
-2 48 -44 106 -94 l105 -90 998 0 997 0 152 94 c200 123 205 127 160 145 -13
5 -77 57 -142 115 l-119 106 -936 -1 -936 0 -100 -74z"/>
<path d="M3761 2940 c-100 -66 -186 -120 -191 -120 -4 0 -13 -21 -18 -47 -265
-1244 -342 -1624 -331 -1636 6 -6 53 -82 103 -167 51 -85 100 -156 109 -158
14 -3 147 87 183 122 13 14 472 1996 466 2013 -3 11 -126 113 -135 113 -2 0
-85 -54 -186 -120z"/>
<path d="M1099 2950 l-134 -101 -34 -177 c-19 -97 -37 -179 -41 -182 -4 -3
-43 -203 -86 -444 -43 -242 -85 -445 -91 -452 -8 -7 -9 -14 -3 -16 6 -2 -10
-107 -40 -258 -27 -140 -50 -263 -50 -273 0 -19 116 -171 134 -174 6 -1 85 55
176 125 l165 128 166 860 c91 472 168 868 172 879 4 16 -13 36 -89 100 -52 44
-98 81 -102 83 -4 1 -69 -43 -143 -98z"/>
<path d="M3973 1170 c-67 -30 -165 -136 -191 -207 -31 -86 -30 -200 2 -270 13
-28 22 -54 19 -57 -3 -3 2 -9 12 -12 9 -4 36 -27 59 -52 22 -24 66 -56 96 -70
47 -21 70 -25 150 -25 113 0 152 16 243 99 32 30 66 54 75 54 14 0 14 2 3 9
-12 7 -10 14 8 36 11 15 21 39 21 53 0 14 5 40 11 57 10 25 8 49 -5 115 -14
69 -23 91 -57 131 -47 56 -120 119 -166 143 -47 24 -223 21 -280 -4z"/>
<path d="M1040 939 c-102 -77 -186 -147 -188 -154 -2 -7 37 -47 87 -89 l89
-76 1091 0 1091 0 75 58 c41 31 74 64 75 73 0 9 -43 87 -97 173 l-96 156 -971
0 -971 0 -185 -141z"/>
</g>
</svg>
