  0
SECTION
  2
HEADER
  9
$ACADVER
  1
AC1014
  9
$HANDSEED
  5
FFFF
  9
$MEASUREMENT
 70
     1
  0
ENDSEC
  0
SECTION
  2
TABLES
  0
TABLE
  2
VPORT
  5
8
330
0
100
AcDbSymbolTable
 70
     4
  0
VPORT
  5
2E
330
8
100
AcDbSymbolTableRecord
100
AcDbViewportTableRecord
  2
*ACTIVE
 70
     0
 10
0.0
 20
0.0
 11
1.0
 21
1.0
 12
210.0
 22
148.5
 13
0.0
 23
0.0
 14
10.0
 24
10.0
 15
10.0
 25
10.0
 16
0.0
 26
0.0
 36
1.0
 17
0.0
 27
0.0
 37
0.0
 40
341.0
 41
1.24
 42
50.0
 43
0.0
 44
0.0
 50
0.0
 51
0.0
 71
     0
 72
   100
 73
     1
 74
     3
 75
     0
 76
     0
 77
     0
 78
     0
  0
ENDTAB
  0
TABLE
  2
LTYPE
  5
5
330
0
100
AcDbSymbolTable
 70
     1
  0
LTYPE
  5
14
330
5
100
AcDbSymbolTableRecord
100
AcDbLinetypeTableRecord
  2
BYBLOCK
 70
     0
  3

 72
    65
 73
     0
 40
0.0
  0
LTYPE
  5
15
330
5
100
AcDbSymbolTableRecord
100
AcDbLinetypeTableRecord
  2
BYLAYER
 70
     0
  3

 72
    65
 73
     0
 40
0.0
  0
LTYPE
  5
16
330
5
100
AcDbSymbolTableRecord
100
AcDbLinetypeTableRecord
  2
CONTINUOUS
 70
     0
  3
Solid line
 72
    65
 73
     0
 40
0.0
  0
ENDTAB
  0
TABLE
  2
LAYER
  5
2
100
AcDbSymbolTable
 70
1
  0
LAYER
  5
50
100
AcDbSymbolTableRecord
100
AcDbLayerTableRecord
  2
0
 70
0
  6
CONTINUOUS
  0
ENDTAB
  0
TABLE
  2
STYLE
  5
3
330
0
100
AcDbSymbolTable
 70
     1
  0
STYLE
  5
11
330
3
100
AcDbSymbolTableRecord
100
AcDbTextStyleTableRecord
  2
STANDARD
 70
     0
 40
0.0
 41
1.0
 50
0.0
 71
     0
 42
2.5
  3
txt
  4

  0
ENDTAB
  0
TABLE
  2
VIEW
  5
6
330
0
100
AcDbSymbolTable
 70
     0
  0
ENDTAB
  0
TABLE
  2
UCS
  5
7
330
0
100
AcDbSymbolTable
 70
     0
  0
ENDTAB
  0
TABLE
  2
APPID
  5
9
330
0
100
AcDbSymbolTable
 70
     2
  0
APPID
  5
12
330
9
100
AcDbSymbolTableRecord
100
AcDbRegAppTableRecord
  2
ACAD
 70
     0
  0
ENDTAB
  0
TABLE
  2
DIMSTYLE
  5
A
330
0
100
AcDbSymbolTable
 70
     1
  0
DIMSTYLE
105
27
330
A
100
AcDbSymbolTableRecord
100
AcDbDimStyleTableRecord
  2
ISO-25
 70
     0
  3

  4

  5

  6

  7

 40
1.0
 41
2.5
 42
0.625
 43
3.75
 44
1.25
 45
0.0
 46
0.0
 47
0.0
 48
0.0
140
2.5
141
2.5
142
0.0
143
0.03937007874016
144
1.0
145
0.0
146
1.0
147
0.625
 71
     0
 72
     0
 73
     0
 74
     0
 75
     0
 76
     0
 77
     1
 78
     8
170
     0
171
     3
172
     1
173
     0
174
     0
175
     0
176
     0
177
     0
178
     0
270
     2
271
     2
272
     2
273
     2
274
     3
340
11
275
     0
280
     0
281
     0
282
     0
283
     0
284
     8
285
     0
286
     0
287
     3
288
     0
  0
ENDTAB
  0
TABLE
  2
BLOCK_RECORD
  5
1
330
0
100
AcDbSymbolTable
 70
     1
  0
BLOCK_RECORD
  5
1F
330
1
100
AcDbSymbolTableRecord
100
AcDbBlockTableRecord
  2
*MODEL_SPACE
  0
BLOCK_RECORD
  5
1B
330
1
100
AcDbSymbolTableRecord
100
AcDbBlockTableRecord
  2
*PAPER_SPACE
  0
ENDTAB
  0
ENDSEC
  0
SECTION
  2
BLOCKS
  0
BLOCK
  5
20
330
1F
100
AcDbEntity
  8
0
100
AcDbBlockBegin
  2
*MODEL_SPACE
 70
     0
 10
0.0
 20
0.0
 30
0.0
  3
*MODEL_SPACE
  1

  0
ENDBLK
  5
21
330
1F
100
AcDbEntity
  8
0
100
AcDbBlockEnd
  0
BLOCK
  5
1C
330
1B
100
AcDbEntity
 67
     1
  8
0
100
AcDbBlockBegin
  2
*PAPER_SPACE
  1

  0
ENDBLK
  5
1D
330
1B
100
AcDbEntity
 67
     1
  8
0
100
AcDbBlockEnd
  0
ENDSEC
  0
SECTION
  2
ENTITIES
  0
SPLINE
  5
100
100
AcDbEntity
  8
0
 62
7
100
AcDbSpline
 70
8
 71
3
 72
8
 73
4
 74
0
 40
0
 40
0
 40
0
 40
0
 40
1
 40
1
 40
1
 40
1
 10
219.427778
 20
157.021389
 30
0.0
 10
212.971944
 20
155.257500
 30
0.0
 10
207.750833
 20
150.636111
 30
0.0
 10
205.598889
 20
144.709444
 30
0.0
  0
SPLINE
  5
101
100
AcDbEntity
  8
0
 62
7
100
AcDbSpline
 70
8
 71
3
 72
8
 73
4
 74
0
 40
0
 40
0
 40
0
 40
0
 40
1
 40
1
 40
1
 40
1
 10
205.598889
 20
144.709444
 30
0.0
 10
204.893333
 20
142.839722
 30
0.0
 10
204.822778
 20
141.851944
 30
0.0
 10
204.681667
 20
130.633611
 30
0.0
  0
SPLINE
  5
102
100
AcDbEntity
  8
0
 62
7
100
AcDbSpline
 70
8
 71
3
 72
8
 73
4
 74
0
 40
0
 40
0
 40
0
 40
0
 40
1
 40
1
 40
1
 40
1
 10
204.681667
 20
130.633611
 30
0.0
 10
204.540556
 20
116.769444
 30
0.0
 10
204.716944
 20
114.652778
 30
0.0
 10
206.586667
 20
110.878056
 30
0.0
  0
SPLINE
  5
103
100
AcDbEntity
  8
0
 62
7
100
AcDbSpline
 70
8
 71
3
 72
8
 73
4
 74
0
 40
0
 40
0
 40
0
 40
0
 40
1
 40
1
 40
1
 40
1
 10
206.586667
 20
110.878056
 30
0.0
 10
208.950278
 20
106.115556
 30
0.0
 10
214.418333
 20
101.846944
 30
0.0
 10
219.780556
 20
100.506389
 30
0.0
  0
SPLINE
  5
104
100
AcDbEntity
  8
0
 62
7
100
AcDbSpline
 70
8
 71
3
 72
8
 73
4
 74
0
 40
0
 40
0
 40
0
 40
0
 40
1
 40
1
 40
1
 40
1
 10
219.780556
 20
100.506389
 30
0.0
 10
222.743889
 20
99.800833
 30
0.0
 10
228.282500
 20
99.977222
 30
0.0
 10
231.245833
 20
100.894444
 30
0.0
  0
SPLINE
  5
105
100
AcDbEntity
  8
0
 62
7
100
AcDbSpline
 70
8
 71
3
 72
8
 73
4
 74
0
 40
0
 40
0
 40
0
 40
0
 40
1
 40
1
 40
1
 40
1
 10
231.245833
 20
100.894444
 30
0.0
 10
237.101944
 20
102.728889
 30
0.0
 10
241.546944
 20
106.962222
 30
0.0
 10
243.628333
 20
112.747778
 30
0.0
  0
SPLINE
  5
106
100
AcDbEntity
  8
0
 62
7
100
AcDbSpline
 70
8
 71
3
 72
8
 73
4
 74
0
 40
0
 40
0
 40
0
 40
0
 40
1
 40
1
 40
1
 40
1
 10
243.628333
 20
112.747778
 30
0.0
 10
245.039444
 20
116.593056
 30
0.0
 10
245.215833
 20
116.416667
 30
0.0
 10
239.959444
 20
116.416667
 30
0.0
  0
SPLINE
  5
107
100
AcDbEntity
  8
0
 62
7
100
AcDbSpline
 70
8
 71
3
 72
8
 73
4
 74
0
 40
0
 40
0
 40
0
 40
0
 40
1
 40
1
 40
1
 40
1
 10
234.773611
 20
114.970278
 30
0.0
 10
233.750556
 20
112.747778
 30
0.0
 10
230.363889
 20
109.855000
 30
0.0
 10
228.000278
 20
109.149444
 30
0.0
  0
SPLINE
  5
108
100
AcDbEntity
  8
0
 62
7
100
AcDbSpline
 70
8
 71
3
 72
8
 73
4
 74
0
 40
0
 40
0
 40
0
 40
0
 40
1
 40
1
 40
1
 40
1
 10
228.000278
 20
109.149444
 30
0.0
 10
221.861944
 20
107.350278
 30
0.0
 10
215.547222
 20
110.807500
 30
0.0
 10
213.959722
 20
116.804722
 30
0.0
  0
SPLINE
  5
109
100
AcDbEntity
  8
0
 62
7
100
AcDbSpline
 70
8
 71
3
 72
8
 73
4
 74
0
 40
0
 40
0
 40
0
 40
0
 40
1
 40
1
 40
1
 40
1
 10
213.959722
 20
116.804722
 30
0.0
 10
213.254167
 20
119.380000
 30
0.0
 10
212.936667
 20
130.316111
 30
0.0
 10
213.360000
 20
136.066389
 30
0.0
  0
SPLINE
  5
10a
100
AcDbEntity
  8
0
 62
7
100
AcDbSpline
 70
8
 71
3
 72
8
 73
4
 74
0
 40
0
 40
0
 40
0
 40
0
 40
1
 40
1
 40
1
 40
1
 10
213.360000
 20
136.066389
 30
0.0
 10
213.748056
 20
141.640278
 30
0.0
 10
214.559444
 20
143.686389
 30
0.0
 10
217.346389
 20
146.191111
 30
0.0
  0
SPLINE
  5
10b
100
AcDbEntity
  8
0
 62
7
100
AcDbSpline
 70
8
 71
3
 72
8
 73
4
 74
0
 40
0
 40
0
 40
0
 40
0
 40
1
 40
1
 40
1
 40
1
 10
217.346389
 20
146.191111
 30
0.0
 10
219.498333
 20
148.131389
 30
0.0
 10
221.615000
 20
148.872222
 30
0.0
 10
224.895833
 20
148.872222
 30
0.0
  0
SPLINE
  5
10c
100
AcDbEntity
  8
0
 62
7
100
AcDbSpline
 70
8
 71
3
 72
8
 73
4
 74
0
 40
0
 40
0
 40
0
 40
0
 40
1
 40
1
 40
1
 40
1
 10
224.895833
 20
148.872222
 30
0.0
 10
227.012500
 20
148.872222
 30
0.0
 10
227.788611
 20
148.695833
 30
0.0
 10
229.587778
 20
147.778611
 30
0.0
  0
SPLINE
  5
10d
100
AcDbEntity
  8
0
 62
7
100
AcDbSpline
 70
8
 71
3
 72
8
 73
4
 74
0
 40
0
 40
0
 40
0
 40
0
 40
1
 40
1
 40
1
 40
1
 10
229.587778
 20
147.778611
 30
0.0
 10
231.951389
 20
146.614444
 30
0.0
 10
233.785833
 20
144.709444
 30
0.0
 10
234.914722
 20
142.310556
 30
0.0
  0
LWPOLYLINE
  5
10e
100
AcDbEntity
  8
0
 62
7
100
AcDbPolyline
 90
3
 70
0
 10
239.959444
 20
116.416667
 30
0.0
 10
235.408611
 20
116.416667
 30
0.0
 10
234.773611
 20
114.970278
 30
0.0
  0
SPLINE
  5
10f
100
AcDbEntity
  8
0
 62
7
100
AcDbSpline
 70
8
 71
3
 72
8
 73
4
 74
0
 40
0
 40
0
 40
0
 40
0
 40
1
 40
1
 40
1
 40
1
 10
244.369167
 20
142.169444
 30
0.0
 10
244.263333
 20
142.945556
 30
0.0
 10
243.522500
 20
144.921111
 30
0.0
 10
242.711111
 20
146.579167
 30
0.0
  0
SPLINE
  5
110
100
AcDbEntity
  8
0
 62
7
100
AcDbSpline
 70
8
 71
3
 72
8
 73
4
 74
0
 40
0
 40
0
 40
0
 40
0
 40
1
 40
1
 40
1
 40
1
 10
242.711111
 20
146.579167
 30
0.0
 10
238.477778
 20
155.151667
 30
0.0
 10
228.670556
 20
159.526111
 30
0.0
 10
219.427778
 20
157.021389
 30
0.0
  0
LWPOLYLINE
  5
111
100
AcDbEntity
  8
0
 62
7
100
AcDbPolyline
 90
5
 70
0
 10
234.914722
 20
142.310556
 30
0.0
 10
235.655556
 20
140.758333
 30
0.0
 10
240.100556
 20
140.758333
 30
0.0
 10
244.580833
 20
140.758333
 30
0.0
 10
244.369167
 20
142.169444
 30
0.0
  0
LWPOLYLINE
  5
112
100
AcDbEntity
  8
0
 62
7
100
AcDbPolyline
 90
1
 70
1
 10
219.427778
 20
157.021389
 30
0.0
  0
SPLINE
  5
113
100
AcDbEntity
  8
0
 62
7
100
AcDbSpline
 70
8
 71
3
 72
8
 73
4
 74
0
 40
0
 40
0
 40
0
 40
0
 40
1
 40
1
 40
1
 40
1
 10
11.994444
 20
100.188889
 30
0.0
 10
18.556111
 20
100.188889
 30
0.0
 10
24.800278
 20
100.365278
 30
0.0
 10
26.352500
 20
100.576944
 30
0.0
  0
SPLINE
  5
114
100
AcDbEntity
  8
0
 62
7
100
AcDbSpline
 70
8
 71
3
 72
8
 73
4
 74
0
 40
0
 40
0
 40
0
 40
0
 40
1
 40
1
 40
1
 40
1
 10
26.352500
 20
100.576944
 30
0.0
 10
33.655000
 20
101.600000
 30
0.0
 10
38.876111
 20
106.715278
 30
0.0
 10
39.899167
 20
113.841389
 30
0.0
  0
SPLINE
  5
115
100
AcDbEntity
  8
0
 62
7
100
AcDbSpline
 70
8
 71
3
 72
8
 73
4
 74
0
 40
0
 40
0
 40
0
 40
0
 40
1
 40
1
 40
1
 40
1
 10
39.899167
 20
113.841389
 30
0.0
 10
40.957500
 20
120.967500
 30
0.0
 10
37.747222
 20
127.317500
 30
0.0
 10
32.173333
 20
129.257778
 30
0.0
  0
LWPOLYLINE
  5
116
100
AcDbEntity
  8
0
 62
7
100
AcDbPolyline
 90
3
 70
0
 10
0.352778
 20
128.622778
 30
0.0
 10
0.352778
 20
100.188889
 30
0.0
 10
11.994444
 20
100.188889
 30
0.0
  0
SPLINE
  5
117
100
AcDbEntity
  8
0
 62
7
100
AcDbSpline
 70
8
 71
3
 72
8
 73
4
 74
0
 40
0
 40
0
 40
0
 40
0
 40
1
 40
1
 40
1
 40
1
 10
32.279167
 20
130.421944
 30
0.0
 10
34.607500
 20
131.621389
 30
0.0
 10
36.935833
 20
133.914444
 30
0.0
 10
37.994167
 20
136.101667
 30
0.0
  0
SPLINE
  5
118
100
AcDbEntity
  8
0
 62
7
100
AcDbSpline
 70
8
 71
3
 72
8
 73
4
 74
0
 40
0
 40
0
 40
0
 40
0
 40
1
 40
1
 40
1
 40
1
 10
37.994167
 20
136.101667
 30
0.0
 10
38.911389
 20
137.971389
 30
0.0
 10
38.981944
 20
138.430000
 30
0.0
 10
38.981944
 20
142.345833
 30
0.0
  0
SPLINE
  5
119
100
AcDbEntity
  8
0
 62
7
100
AcDbSpline
 70
8
 71
3
 72
8
 73
4
 74
0
 40
0
 40
0
 40
0
 40
0
 40
1
 40
1
 40
1
 40
1
 10
38.981944
 20
142.345833
 30
0.0
 10
38.981944
 20
146.438056
 30
0.0
 10
38.946667
 20
146.685000
 30
0.0
 10
37.853056
 20
148.872222
 30
0.0
  0
SPLINE
  5
11a
100
AcDbEntity
  8
0
 62
7
100
AcDbSpline
 70
8
 71
3
 72
8
 73
4
 74
0
 40
0
 40
0
 40
0
 40
0
 40
1
 40
1
 40
1
 40
1
 10
37.853056
 20
148.872222
 30
0.0
 10
36.124444
 20
152.364722
 30
0.0
 10
33.866667
 20
154.481389
 30
0.0
 10
30.303611
 20
155.963056
 30
0.0
  0
SPLINE
  5
11b
100
AcDbEntity
  8
0
 62
7
100
AcDbSpline
 70
8
 71
3
 72
8
 73
4
 74
0
 40
0
 40
0
 40
0
 40
0
 40
1
 40
1
 40
1
 40
1
 10
30.303611
 20
155.963056
 30
0.0
 10
28.433889
 20
156.774444
 30
0.0
 10
28.045833
 20
156.774444
 30
0.0
 10
14.393333
 20
156.915556
 30
0.0
  0
LWPOLYLINE
  5
11c
100
AcDbEntity
  8
0
 62
7
100
AcDbPolyline
 90
3
 70
0
 10
32.173333
 20
129.257778
 30
0.0
 10
30.868056
 20
129.716389
 30
0.0
 10
32.279167
 20
130.421944
 30
0.0
  0
SPLINE
  5
11d
100
AcDbEntity
  8
0
 62
7
100
AcDbSpline
 70
8
 71
3
 72
8
 73
4
 74
0
 40
0
 40
0
 40
0
 40
0
 40
1
 40
1
 40
1
 40
1
 10
26.458333
 20
148.343056
 30
0.0
 10
29.210000
 20
146.826111
 30
0.0
 10
30.444722
 20
144.744722
 30
0.0
 10
30.444722
 20
141.534444
 30
0.0
  0
SPLINE
  5
11e
100
AcDbEntity
  8
0
 62
7
100
AcDbSpline
 70
8
 71
3
 72
8
 73
4
 74
0
 40
0
 40
0
 40
0
 40
0
 40
1
 40
1
 40
1
 40
1
 10
30.444722
 20
141.534444
 30
0.0
 10
30.444722
 20
138.747500
 30
0.0
 10
29.562778
 20
136.701389
 30
0.0
 10
27.763611
 20
135.325556
 30
0.0
  0
SPLINE
  5
11f
100
AcDbEntity
  8
0
 62
7
100
AcDbSpline
 70
8
 71
3
 72
8
 73
4
 74
0
 40
0
 40
0
 40
0
 40
0
 40
1
 40
1
 40
1
 40
1
 10
27.763611
 20
135.325556
 30
0.0
 10
25.470556
 20
133.596944
 30
0.0
 10
24.130000
 20
133.350000
 30
0.0
 10
16.368889
 20
133.350000
 30
0.0
  0
LWPOLYLINE
  5
120
100
AcDbEntity
  8
0
 62
7
100
AcDbPolyline
 90
4
 70
0
 10
14.393333
 20
156.915556
 30
0.0
 10
0.352778
 20
157.021389
 30
0.0
 10
0.352778
 20
128.622778
 30
0.0
 10
0.352778
 20
128.622778
 30
0.0
  0
SPLINE
  5
121
100
AcDbEntity
  8
0
 62
7
100
AcDbSpline
 70
8
 71
3
 72
8
 73
4
 74
0
 40
0
 40
0
 40
0
 40
0
 40
1
 40
1
 40
1
 40
1
 10
26.987500
 20
124.636389
 30
0.0
 10
29.774444
 20
123.154722
 30
0.0
 10
31.397222
 20
120.403056
 30
0.0
 10
31.397222
 20
117.122222
 30
0.0
  0
SPLINE
  5
122
100
AcDbEntity
  8
0
 62
7
100
AcDbSpline
 70
8
 71
3
 72
8
 73
4
 74
0
 40
0
 40
0
 40
0
 40
0
 40
1
 40
1
 40
1
 40
1
 10
31.397222
 20
117.122222
 30
0.0
 10
31.397222
 20
113.841389
 30
0.0
 10
29.774444
 20
111.089722
 30
0.0
 10
26.987500
 20
109.608056
 30
0.0
  0
SPLINE
  5
123
100
AcDbEntity
  8
0
 62
7
100
AcDbSpline
 70
8
 71
3
 72
8
 73
4
 74
0
 40
0
 40
0
 40
0
 40
0
 40
1
 40
1
 40
1
 40
1
 10
26.987500
 20
109.608056
 30
0.0
 10
25.682222
 20
108.902500
 30
0.0
 10
24.976667
 20
108.831944
 30
0.0
 10
17.391944
 20
108.726111
 30
0.0
  0
LWPOLYLINE
  5
124
100
AcDbEntity
  8
0
 62
7
100
AcDbPolyline
 90
8
 70
0
 10
16.368889
 20
133.350000
 30
0.0
 10
9.172222
 20
133.350000
 30
0.0
 10
9.172222
 20
141.499167
 30
0.0
 10
9.172222
 20
149.613056
 30
0.0
 10
16.862778
 20
149.507222
 30
0.0
 10
24.518056
 20
149.401389
 30
0.0
 10
26.458333
 20
148.343056
 30
0.0
 10
26.458333
 20
148.343056
 30
0.0
  0
SPLINE
  5
125
100
AcDbEntity
  8
0
 62
7
100
AcDbSpline
 70
8
 71
3
 72
8
 73
4
 74
0
 40
0
 40
0
 40
0
 40
0
 40
1
 40
1
 40
1
 40
1
 10
17.391944
 20
125.518333
 30
0.0
 10
24.976667
 20
125.412500
 30
0.0
 10
25.682222
 20
125.341944
 30
0.0
 10
26.987500
 20
124.636389
 30
0.0
  0
LWPOLYLINE
  5
126
100
AcDbEntity
  8
0
 62
7
100
AcDbPolyline
 90
5
 70
0
 10
17.391944
 20
108.726111
 30
0.0
 10
9.172222
 20
108.620278
 30
0.0
 10
9.172222
 20
117.122222
 30
0.0
 10
9.172222
 20
125.659444
 30
0.0
 10
17.391944
 20
125.518333
 30
0.0
  0
SPLINE
  5
127
100
AcDbEntity
  8
0
 62
7
100
AcDbSpline
 70
8
 71
3
 72
8
 73
4
 74
0
 40
0
 40
0
 40
0
 40
0
 40
1
 40
1
 40
1
 40
1
 10
66.145833
 20
156.668611
 30
0.0
 10
65.969444
 20
156.351111
 30
0.0
 10
65.087500
 20
154.022778
 30
0.0
 10
62.618056
 20
147.108333
 30
0.0
  0
SPLINE
  5
128
100
AcDbEntity
  8
0
 62
7
100
AcDbSpline
 70
8
 71
3
 72
8
 73
4
 74
0
 40
0
 40
0
 40
0
 40
0
 40
1
 40
1
 40
1
 40
1
 10
62.618056
 20
147.108333
 30
0.0
 10
62.159444
 20
145.838333
 30
0.0
 10
61.206944
 20
143.227778
 30
0.0
 10
60.501389
 20
141.287500
 30
0.0
  0
SPLINE
  5
129
100
AcDbEntity
  8
0
 62
7
100
AcDbSpline
 70
8
 71
3
 72
8
 73
4
 74
0
 40
0
 40
0
 40
0
 40
0
 40
1
 40
1
 40
1
 40
1
 10
60.501389
 20
141.287500
 30
0.0
 10
59.795833
 20
139.347222
 30
0.0
 10
58.843333
 20
136.736667
 30
0.0
 10
58.384722
 20
135.466667
 30
0.0
  0
SPLINE
  5
12a
100
AcDbEntity
  8
0
 62
7
100
AcDbSpline
 70
8
 71
3
 72
8
 73
4
 74
0
 40
0
 40
0
 40
0
 40
0
 40
1
 40
1
 40
1
 40
1
 10
58.384722
 20
135.466667
 30
0.0
 10
57.926111
 20
134.196667
 30
0.0
 10
56.973611
 20
131.586111
 30
0.0
 10
56.268056
 20
129.645833
 30
0.0
  0
SPLINE
  5
12b
100
AcDbEntity
  8
0
 62
7
100
AcDbSpline
 70
8
 71
3
 72
8
 73
4
 74
0
 40
0
 40
0
 40
0
 40
0
 40
1
 40
1
 40
1
 40
1
 10
56.268056
 20
129.645833
 30
0.0
 10
55.562500
 20
127.705556
 30
0.0
 10
54.856944
 20
125.730000
 30
0.0
 10
54.680556
 20
125.236111
 30
0.0
  0
SPLINE
  5
12c
100
AcDbEntity
  8
0
 62
7
100
AcDbSpline
 70
8
 71
3
 72
8
 73
4
 74
0
 40
0
 40
0
 40
0
 40
0
 40
1
 40
1
 40
1
 40
1
 10
54.680556
 20
125.236111
 30
0.0
 10
54.539444
 20
124.742222
 30
0.0
 10
53.939722
 20
123.084167
 30
0.0
 10
53.340000
 20
121.531944
 30
0.0
  0
SPLINE
  5
12d
100
AcDbEntity
  8
0
 62
7
100
AcDbSpline
 70
8
 71
3
 72
8
 73
4
 74
0
 40
0
 40
0
 40
0
 40
0
 40
1
 40
1
 40
1
 40
1
 10
53.340000
 20
121.531944
 30
0.0
 10
52.740278
 20
119.979722
 30
0.0
 10
51.540833
 20
116.734167
 30
0.0
 10
50.658889
 20
114.300000
 30
0.0
  0
SPLINE
  5
12e
100
AcDbEntity
  8
0
 62
7
100
AcDbSpline
 70
8
 71
3
 72
8
 73
4
 74
0
 40
0
 40
0
 40
0
 40
0
 40
1
 40
1
 40
1
 40
1
 10
50.658889
 20
114.300000
 30
0.0
 10
49.776944
 20
111.865833
 30
0.0
 10
48.365833
 20
107.914722
 30
0.0
 10
47.483889
 20
105.515833
 30
0.0
  0
SPLINE
  5
12f
100
AcDbEntity
  8
0
 62
7
100
AcDbSpline
 70
8
 71
3
 72
8
 73
4
 74
0
 40
0
 40
0
 40
0
 40
0
 40
1
 40
1
 40
1
 40
1
 10
47.483889
 20
105.515833
 30
0.0
 10
46.566667
 20
103.081667
 30
0.0
 10
45.861111
 20
100.894444
 30
0.0
 10
45.861111
 20
100.647500
 30
0.0
  0
SPLINE
  5
130
100
AcDbEntity
  8
0
 62
7
100
AcDbSpline
 70
8
 71
3
 72
8
 73
4
 74
0
 40
0
 40
0
 40
0
 40
0
 40
1
 40
1
 40
1
 40
1
 10
45.861111
 20
100.647500
 30
0.0
 10
45.861111
 20
100.259444
 30
0.0
 10
46.778333
 20
100.188889
 30
0.0
 10
50.341389
 20
100.259444
 30
0.0
  0
LWPOLYLINE
  5
131
100
AcDbEntity
  8
0
 62
7
100
AcDbPolyline
 90
1
 70
1
 10
26.987500
 20
124.636389
 30
0.0
  0
SPLINE
  5
132
100
AcDbEntity
  8
0
 62
7
100
AcDbSpline
 70
8
 71
3
 72
8
 73
4
 74
0
 40
0
 40
0
 40
0
 40
0
 40
1
 40
1
 40
1
 40
1
 10
56.126944
 20
104.245833
 30
0.0
 10
57.538056
 20
108.338056
 30
0.0
 10
58.384722
 20
110.666389
 30
0.0
 10
58.984444
 20
112.289167
 30
0.0
  0
LWPOLYLINE
  5
133
100
AcDbEntity
  8
0
 62
7
100
AcDbPolyline
 90
3
 70
0
 10
50.341389
 20
100.259444
 30
0.0
 10
54.786389
 20
100.365278
 30
0.0
 10
56.126944
 20
104.245833
 30
0.0
  0
SPLINE
  5
134
100
AcDbEntity
  8
0
 62
7
100
AcDbSpline
 70
8
 71
3
 72
8
 73
4
 74
0
 40
0
 40
0
 40
0
 40
0
 40
1
 40
1
 40
1
 40
1
 10
82.514722
 20
107.703056
 30
0.0
 10
83.573056
 20
104.633889
 30
0.0
 10
84.631389
 20
101.705833
 30
0.0
 10
84.913611
 20
101.176667
 30
0.0
  0
LWPOLYLINE
  5
135
100
AcDbEntity
  8
0
 62
7
100
AcDbPolyline
 90
5
 70
0
 10
58.984444
 20
112.289167
 30
0.0
 10
59.337222
 20
113.241667
 30
0.0
 10
69.991111
 20
113.241667
 30
0.0
 10
80.645000
 20
113.241667
 30
0.0
 10
82.514722
 20
107.703056
 30
0.0
  0
SPLINE
  5
136
100
AcDbEntity
  8
0
 62
7
100
AcDbSpline
 70
8
 71
3
 72
8
 73
4
 74
0
 40
0
 40
0
 40
0
 40
0
 40
1
 40
1
 40
1
 40
1
 10
89.781944
 20
100.188889
 30
0.0
 10
92.216111
 20
100.188889
 30
0.0
 10
94.191667
 20
100.224167
 30
0.0
 10
94.191667
 20
100.294722
 30
0.0
  0
SPLINE
  5
137
100
AcDbEntity
  8
0
 62
7
100
AcDbSpline
 70
8
 71
3
 72
8
 73
4
 74
0
 40
0
 40
0
 40
0
 40
0
 40
1
 40
1
 40
1
 40
1
 10
94.191667
 20
100.294722
 30
0.0
 10
94.191667
 20
100.435833
 30
0.0
 10
92.921667
 20
104.104722
 30
0.0
 10
91.263611
 20
108.655556
 30
0.0
  0
SPLINE
  5
138
100
AcDbEntity
  8
0
 62
7
100
AcDbSpline
 70
8
 71
3
 72
8
 73
4
 74
0
 40
0
 40
0
 40
0
 40
0
 40
1
 40
1
 40
1
 40
1
 10
91.263611
 20
108.655556
 30
0.0
 10
88.018056
 20
117.616111
 30
0.0
 10
85.125278
 20
125.588889
 30
0.0
 10
83.255556
 20
130.704167
 30
0.0
  0
SPLINE
  5
139
100
AcDbEntity
  8
0
 62
7
100
AcDbSpline
 70
8
 71
3
 72
8
 73
4
 74
0
 40
0
 40
0
 40
0
 40
0
 40
1
 40
1
 40
1
 40
1
 10
83.255556
 20
130.704167
 30
0.0
 10
82.126667
 20
133.808611
 30
0.0
 10
79.974722
 20
139.700000
 30
0.0
 10
78.493056
 20
143.756944
 30
0.0
  0
SPLINE
  5
13a
100
AcDbEntity
  8
0
 62
7
100
AcDbSpline
 70
8
 71
3
 72
8
 73
4
 74
0
 40
0
 40
0
 40
0
 40
0
 40
1
 40
1
 40
1
 40
1
 10
78.493056
 20
143.756944
 30
0.0
 10
77.011389
 20
147.849167
 30
0.0
 10
75.318056
 20
152.470556
 30
0.0
 10
74.718333
 20
154.093333
 30
0.0
  0
LWPOLYLINE
  5
13b
100
AcDbEntity
  8
0
 62
7
100
AcDbPolyline
 90
3
 70
0
 10
84.913611
 20
101.176667
 30
0.0
 10
85.407500
 20
100.188889
 30
0.0
 10
89.781944
 20
100.188889
 30
0.0
  0
SPLINE
  5
13c
100
AcDbEntity
  8
0
 62
7
100
AcDbSpline
 70
8
 71
3
 72
8
 73
4
 74
0
 40
0
 40
0
 40
0
 40
0
 40
1
 40
1
 40
1
 40
1
 10
69.991111
 20
156.986111
 30
0.0
 10
68.015556
 20
156.986111
 30
0.0
 10
66.286944
 20
156.845000
 30
0.0
 10
66.145833
 20
156.668611
 30
0.0
  0
LWPOLYLINE
  5
13d
100
AcDbEntity
  8
0
 62
7
100
AcDbPolyline
 90
3
 70
0
 10
74.718333
 20
154.093333
 30
0.0
 10
73.624722
 20
156.986111
 30
0.0
 10
69.991111
 20
156.986111
 30
0.0
  0
SPLINE
  5
13e
100
AcDbEntity
  8
0
 62
7
100
AcDbSpline
 70
8
 71
3
 72
8
 73
4
 74
0
 40
0
 40
0
 40
0
 40
0
 40
1
 40
1
 40
1
 40
1
 10
74.259722
 20
132.679722
 30
0.0
 10
76.305833
 20
126.400278
 30
0.0
 10
77.963889
 20
121.214444
 30
0.0
 10
77.858056
 20
121.143889
 30
0.0
  0
SPLINE
  5
13f
100
AcDbEntity
  8
0
 62
7
100
AcDbSpline
 70
8
 71
3
 72
8
 73
4
 74
0
 40
0
 40
0
 40
0
 40
0
 40
1
 40
1
 40
1
 40
1
 10
77.858056
 20
121.143889
 30
0.0
 10
77.787500
 20
121.073333
 30
0.0
 10
74.153889
 20
121.038056
 30
0.0
 10
69.779444
 20
121.073333
 30
0.0
  0
LWPOLYLINE
  5
140
100
AcDbEntity
  8
0
 62
7
100
AcDbPolyline
 90
1
 70
1
 10
66.145833
 20
156.668611
 30
0.0
  0
SPLINE
  5
141
100
AcDbEntity
  8
0
 62
7
100
AcDbSpline
 70
8
 71
3
 72
8
 73
4
 74
0
 40
0
 40
0
 40
0
 40
0
 40
1
 40
1
 40
1
 40
1
 10
65.651944
 20
132.609167
 30
0.0
 10
67.733333
 20
138.923889
 30
0.0
 10
69.532500
 20
144.391944
 30
0.0
 10
69.673611
 20
144.780000
 30
0.0
  0
LWPOLYLINE
  5
142
100
AcDbEntity
  8
0
 62
7
100
AcDbPolyline
 90
3
 70
0
 10
69.779444
 20
121.073333
 30
0.0
 10
61.841944
 20
121.179167
 30
0.0
 10
65.651944
 20
132.609167
 30
0.0
  0
SPLINE
  5
143
100
AcDbEntity
  8
0
 62
7
100
AcDbSpline
 70
8
 71
3
 72
8
 73
4
 74
0
 40
0
 40
0
 40
0
 40
0
 40
1
 40
1
 40
1
 40
1
 10
70.167500
 20
144.780000
 30
0.0
 10
70.343889
 20
144.391944
 30
0.0
 10
72.178333
 20
138.959167
 30
0.0
 10
74.259722
 20
132.679722
 30
0.0
  0
LWPOLYLINE
  5
144
100
AcDbEntity
  8
0
 62
7
100
AcDbPolyline
 90
3
 70
0
 10
69.673611
 20
144.780000
 30
0.0
 10
69.885278
 20
145.520833
 30
0.0
 10
70.167500
 20
144.780000
 30
0.0
  0
LWPOLYLINE
  5
145
100
AcDbEntity
  8
0
 62
7
100
AcDbPolyline
 90
1
 70
1
 10
74.259722
 20
132.679722
 30
0.0
  0
LWPOLYLINE
  5
146
100
AcDbEntity
  8
0
 62
7
100
AcDbPolyline
 90
13
 70
1
 10
102.658333
 20
128.587500
 30
0.0
 10
102.658333
 20
100.188889
 30
0.0
 10
120.826389
 20
100.188889
 30
0.0
 10
138.994444
 20
100.188889
 30
0.0
 10
138.994444
 20
104.422222
 30
0.0
 10
138.994444
 20
108.655556
 30
0.0
 10
125.236111
 20
108.655556
 30
0.0
 10
111.477778
 20
108.655556
 30
0.0
 10
111.477778
 20
132.820833
 30
0.0
 10
111.477778
 20
156.986111
 30
0.0
 10
107.068056
 20
156.986111
 30
0.0
 10
102.658333
 20
156.986111
 30
0.0
 10
102.658333
 20
128.587500
 30
0.0
  0
LWPOLYLINE
  5
147
100
AcDbEntity
  8
0
 62
7
100
AcDbPolyline
 90
17
 70
1
 10
134.761111
 20
153.281944
 30
0.0
 10
134.761111
 20
149.577778
 30
0.0
 10
142.522222
 20
149.577778
 30
0.0
 10
150.283333
 20
149.577778
 30
0.0
 10
150.353889
 20
124.989167
 30
0.0
 10
150.459722
 20
100.365278
 30
0.0
 10
154.798889
 20
100.259444
 30
0.0
 10
159.102778
 20
100.153611
 30
0.0
 10
159.102778
 20
124.883333
 30
0.0
 10
159.102778
 20
149.577778
 30
0.0
 10
166.863889
 20
149.577778
 30
0.0
 10
174.625000
 20
149.577778
 30
0.0
 10
174.625000
 20
153.281944
 30
0.0
 10
174.625000
 20
156.986111
 30
0.0
 10
154.693056
 20
156.986111
 30
0.0
 10
134.761111
 20
156.986111
 30
0.0
 10
134.761111
 20
153.281944
 30
0.0
  0
LWPOLYLINE
  5
148
100
AcDbEntity
  8
0
 62
7
100
AcDbPolyline
 90
9
 70
1
 10
183.444444
 20
128.587500
 30
0.0
 10
183.444444
 20
100.188889
 30
0.0
 10
187.677778
 20
100.188889
 30
0.0
 10
191.911111
 20
100.188889
 30
0.0
 10
191.911111
 20
128.587500
 30
0.0
 10
191.911111
 20
156.986111
 30
0.0
 10
187.677778
 20
156.986111
 30
0.0
 10
183.444444
 20
156.986111
 30
0.0
 10
183.444444
 20
128.587500
 30
0.0
  0
SPLINE
  5
149
100
AcDbEntity
  8
0
 62
7
100
AcDbSpline
 70
8
 71
3
 72
8
 73
4
 74
0
 40
0
 40
0
 40
0
 40
0
 40
1
 40
1
 40
1
 40
1
 10
293.863889
 20
101.600000
 30
0.0
 10
308.821667
 20
101.600000
 30
0.0
 10
321.027778
 20
101.529444
 30
0.0
 10
321.027778
 20
101.423611
 30
0.0
  0
SPLINE
  5
14a
100
AcDbEntity
  8
0
 62
7
100
AcDbSpline
 70
8
 71
3
 72
8
 73
4
 74
0
 40
0
 40
0
 40
0
 40
0
 40
1
 40
1
 40
1
 40
1
 10
321.027778
 20
101.423611
 30
0.0
 10
321.027778
 20
101.282500
 30
0.0
 10
316.970833
 20
92.710000
 30
0.0
 10
311.291111
 20
80.856667
 30
0.0
  0
SPLINE
  5
14b
100
AcDbEntity
  8
0
 62
7
100
AcDbSpline
 70
8
 71
3
 72
8
 73
4
 74
0
 40
0
 40
0
 40
0
 40
0
 40
1
 40
1
 40
1
 40
1
 10
311.291111
 20
80.856667
 30
0.0
 10
310.056389
 20
78.281389
 30
0.0
 10
309.033333
 20
76.094167
 30
0.0
 10
309.033333
 20
76.023611
 30
0.0
  0
SPLINE
  5
14c
100
AcDbEntity
  8
0
 62
7
100
AcDbSpline
 70
8
 71
3
 72
8
 73
4
 74
0
 40
0
 40
0
 40
0
 40
0
 40
1
 40
1
 40
1
 40
1
 10
309.033333
 20
76.023611
 30
0.0
 10
309.033333
 20
75.917778
 30
0.0
 10
308.292500
 20
74.400833
 30
0.0
 10
307.410556
 20
72.601667
 30
0.0
  0
SPLINE
  5
14d
100
AcDbEntity
  8
0
 62
7
100
AcDbSpline
 70
8
 71
3
 72
8
 73
4
 74
0
 40
0
 40
0
 40
0
 40
0
 40
1
 40
1
 40
1
 40
1
 10
307.410556
 20
72.601667
 30
0.0
 10
306.528611
 20
70.802500
 30
0.0
 10
304.800000
 20
67.168889
 30
0.0
 10
303.565278
 20
64.558333
 30
0.0
  0
SPLINE
  5
14e
100
AcDbEntity
  8
0
 62
7
100
AcDbSpline
 70
8
 71
3
 72
8
 73
4
 74
0
 40
0
 40
0
 40
0
 40
0
 40
1
 40
1
 40
1
 40
1
 10
303.565278
 20
64.558333
 30
0.0
 10
302.365833
 20
61.947778
 30
0.0
 10
300.566667
 20
58.137778
 30
0.0
 10
299.578889
 20
56.091667
 30
0.0
  0
SPLINE
  5
14f
100
AcDbEntity
  8
0
 62
7
100
AcDbSpline
 70
8
 71
3
 72
8
 73
4
 74
0
 40
0
 40
0
 40
0
 40
0
 40
1
 40
1
 40
1
 40
1
 10
299.578889
 20
56.091667
 30
0.0
 10
295.204444
 20
46.919444
 30
0.0
 10
288.219444
 20
32.032222
 30
0.0
 10
288.219444
 20
31.855833
 30
0.0
  0
SPLINE
  5
150
100
AcDbEntity
  8
0
 62
7
100
AcDbSpline
 70
8
 71
3
 72
8
 73
4
 74
0
 40
0
 40
0
 40
0
 40
0
 40
1
 40
1
 40
1
 40
1
 10
288.219444
 20
31.855833
 30
0.0
 10
288.219444
 20
31.820556
 30
0.0
 10
300.037500
 20
31.750000
 30
0.0
 10
314.466111
 20
31.750000
 30
0.0
  0
LWPOLYLINE
  5
151
100
AcDbEntity
  8
0
 62
7
100
AcDbPolyline
 90
3
 70
0
 10
266.700000
 20
129.293056
 30
0.0
 10
266.700000
 20
101.600000
 30
0.0
 10
293.863889
 20
101.600000
 30
0.0
  0
SPLINE
  5
152
100
AcDbEntity
  8
0
 62
7
100
AcDbSpline
 70
8
 71
3
 72
8
 73
4
 74
0
 40
0
 40
0
 40
0
 40
0
 40
1
 40
1
 40
1
 40
1
 10
367.700278
 20
40.922222
 30
0.0
 10
381.529167
 20
40.922222
 30
0.0
 10
389.819444
 20
41.063333
 30
0.0
 10
389.819444
 20
41.275000
 30
0.0
  0
SPLINE
  5
153
100
AcDbEntity
  8
0
 62
7
100
AcDbSpline
 70
8
 71
3
 72
8
 73
4
 74
0
 40
0
 40
0
 40
0
 40
0
 40
1
 40
1
 40
1
 40
1
 10
389.819444
 20
41.275000
 30
0.0
 10
389.819444
 20
41.451389
 30
0.0
 10
391.900833
 20
45.931667
 30
0.0
 10
394.440833
 20
51.223333
 30
0.0
  0
SPLINE
  5
154
100
AcDbEntity
  8
0
 62
7
100
AcDbSpline
 70
8
 71
3
 72
8
 73
4
 74
0
 40
0
 40
0
 40
0
 40
0
 40
1
 40
1
 40
1
 40
1
 10
394.440833
 20
51.223333
 30
0.0
 10
396.980833
 20
56.515000
 30
0.0
 10
400.896667
 20
64.664167
 30
0.0
 10
403.119167
 20
69.320833
 30
0.0
  0
SPLINE
  5
155
100
AcDbEntity
  8
0
 62
7
100
AcDbSpline
 70
8
 71
3
 72
8
 73
4
 74
0
 40
0
 40
0
 40
0
 40
0
 40
1
 40
1
 40
1
 40
1
 10
403.119167
 20
69.320833
 30
0.0
 10
405.376944
 20
73.977500
 30
0.0
 10
408.446111
 20
80.362778
 30
0.0
 10
409.963056
 20
83.537778
 30
0.0
  0
SPLINE
  5
156
100
AcDbEntity
  8
0
 62
7
100
AcDbSpline
 70
8
 71
3
 72
8
 73
4
 74
0
 40
0
 40
0
 40
0
 40
0
 40
1
 40
1
 40
1
 40
1
 10
409.963056
 20
83.537778
 30
0.0
 10
411.515278
 20
86.677500
 30
0.0
 10
412.750000
 20
89.429167
 30
0.0
 10
412.750000
 20
89.605556
 30
0.0
  0
SPLINE
  5
157
100
AcDbEntity
  8
0
 62
7
100
AcDbSpline
 70
8
 71
3
 72
8
 73
4
 74
0
 40
0
 40
0
 40
0
 40
0
 40
1
 40
1
 40
1
 40
1
 10
412.750000
 20
89.605556
 30
0.0
 10
412.750000
 20
89.852500
 30
0.0
 10
397.933333
 20
89.958333
 30
0.0
 10
370.769444
 20
89.958333
 30
0.0
  0
SPLINE
  5
158
100
AcDbEntity
  8
0
 62
7
100
AcDbSpline
 70
8
 71
3
 72
8
 73
4
 74
0
 40
0
 40
0
 40
0
 40
0
 40
1
 40
1
 40
1
 40
1
 10
370.769444
 20
89.958333
 30
0.0
 10
347.697778
 20
89.958333
 30
0.0
 10
328.788889
 20
90.064167
 30
0.0
 10
328.788889
 20
90.240556
 30
0.0
  0
SPLINE
  5
159
100
AcDbEntity
  8
0
 62
7
100
AcDbSpline
 70
8
 71
3
 72
8
 73
4
 74
0
 40
0
 40
0
 40
0
 40
0
 40
1
 40
1
 40
1
 40
1
 10
328.788889
 20
90.240556
 30
0.0
 10
328.788889
 20
90.381667
 30
0.0
 10
329.953056
 20
92.956944
 30
0.0
 10
331.364167
 20
95.955556
 30
0.0
  0
LWPOLYLINE
  5
15a
100
AcDbEntity
  8
0
 62
7
100
AcDbPolyline
 90
5
 70
0
 10
314.466111
 20
31.750000
 30
0.0
 10
340.748056
 20
31.750000
 30
0.0
 10
343.146944
 20
36.336111
 30
0.0
 10
345.545833
 20
40.922222
 30
0.0
 10
367.700278
 20
40.922222
 30
0.0
  0
SPLINE
  5
15b
100
AcDbEntity
  8
0
 62
7
100
AcDbSpline
 70
8
 71
3
 72
8
 73
4
 74
0
 40
0
 40
0
 40
0
 40
0
 40
1
 40
1
 40
1
 40
1
 10
416.630556
 20
103.046389
 30
0.0
 10
416.630556
 20
105.480556
 30
0.0
 10
415.572222
 20
113.276944
 30
0.0
 10
414.831389
 20
116.240278
 30
0.0
  0
SPLINE
  5
15c
100
AcDbEntity
  8
0
 62
7
100
AcDbSpline
 70
8
 71
3
 72
8
 73
4
 74
0
 40
0
 40
0
 40
0
 40
0
 40
1
 40
1
 40
1
 40
1
 10
414.831389
 20
116.240278
 30
0.0
 10
412.079722
 20
127.423333
 30
0.0
 10
408.128611
 20
134.514167
 30
0.0
 10
400.543889
 20
141.816667
 30
0.0
  0
SPLINE
  5
15d
100
AcDbEntity
  8
0
 62
7
100
AcDbSpline
 70
8
 71
3
 72
8
 73
4
 74
0
 40
0
 40
0
 40
0
 40
0
 40
1
 40
1
 40
1
 40
1
 10
400.543889
 20
141.816667
 30
0.0
 10
395.993056
 20
146.191111
 30
0.0
 10
389.960556
 20
150.142222
 30
0.0
 10
384.880556
 20
152.047222
 30
0.0
  0
SPLINE
  5
15e
100
AcDbEntity
  8
0
 62
7
100
AcDbSpline
 70
8
 71
3
 72
8
 73
4
 74
0
 40
0
 40
0
 40
0
 40
0
 40
1
 40
1
 40
1
 40
1
 10
384.880556
 20
152.047222
 30
0.0
 10
384.210278
 20
152.294167
 30
0.0
 10
383.081389
 20
152.717500
 30
0.0
 10
382.411111
 20
152.999722
 30
0.0
  0
SPLINE
  5
15f
100
AcDbEntity
  8
0
 62
7
100
AcDbSpline
 70
8
 71
3
 72
8
 73
4
 74
0
 40
0
 40
0
 40
0
 40
0
 40
1
 40
1
 40
1
 40
1
 10
382.411111
 20
152.999722
 30
0.0
 10
380.647222
 20
153.670000
 30
0.0
 10
375.355556
 20
155.186944
 30
0.0
 10
371.651389
 20
156.033611
 30
0.0
  0
SPLINE
  5
160
100
AcDbEntity
  8
0
 62
7
100
AcDbSpline
 70
8
 71
3
 72
8
 73
4
 74
0
 40
0
 40
0
 40
0
 40
0
 40
1
 40
1
 40
1
 40
1
 10
371.651389
 20
156.033611
 30
0.0
 10
368.511667
 20
156.774444
 30
0.0
 10
367.735556
 20
156.774444
 30
0.0
 10
317.605833
 20
156.880278
 30
0.0
  0
LWPOLYLINE
  5
161
100
AcDbEntity
  8
0
 62
7
100
AcDbPolyline
 90
5
 70
0
 10
331.364167
 20
95.955556
 30
0.0
 10
333.939444
 20
101.423611
 30
0.0
 10
375.285000
 20
101.529444
 30
0.0
 10
416.630556
 20
101.600000
 30
0.0
 10
416.630556
 20
103.046389
 30
0.0
  0
SPLINE
  5
162
100
AcDbEntity
  8
0
 62
7
100
AcDbSpline
 70
8
 71
3
 72
8
 73
4
 74
0
 40
0
 40
0
 40
0
 40
0
 40
1
 40
1
 40
1
 40
1
 10
120.120833
 20
89.993611
 30
0.0
 10
115.816944
 20
89.358611
 30
0.0
 10
111.936389
 20
87.312500
 30
0.0
 10
108.655556
 20
83.996389
 30
0.0
  0
SPLINE
  5
163
100
AcDbEntity
  8
0
 62
7
100
AcDbSpline
 70
8
 71
3
 72
8
 73
4
 74
0
 40
0
 40
0
 40
0
 40
0
 40
1
 40
1
 40
1
 40
1
 10
108.655556
 20
83.996389
 30
0.0
 10
105.515833
 20
80.786111
 30
0.0
 10
104.104722
 20
77.893333
 30
0.0
 10
103.505000
 20
73.236667
 30
0.0
  0
SPLINE
  5
164
100
AcDbEntity
  8
0
 62
7
100
AcDbSpline
 70
8
 71
3
 72
8
 73
4
 74
0
 40
0
 40
0
 40
0
 40
0
 40
1
 40
1
 40
1
 40
1
 10
103.505000
 20
73.236667
 30
0.0
 10
102.870000
 20
68.403611
 30
0.0
 10
102.870000
 20
53.798611
 30
0.0
 10
103.505000
 20
49.247778
 30
0.0
  0
SPLINE
  5
165
100
AcDbEntity
  8
0
 62
7
100
AcDbSpline
 70
8
 71
3
 72
8
 73
4
 74
0
 40
0
 40
0
 40
0
 40
0
 40
1
 40
1
 40
1
 40
1
 10
103.505000
 20
49.247778
 30
0.0
 10
104.422222
 20
42.827222
 30
0.0
 10
107.632500
 20
38.241111
 30
0.0
 10
113.594444
 20
34.854444
 30
0.0
  0
SPLINE
  5
166
100
AcDbEntity
  8
0
 62
7
100
AcDbSpline
 70
8
 71
3
 72
8
 73
4
 74
0
 40
0
 40
0
 40
0
 40
0
 40
1
 40
1
 40
1
 40
1
 10
113.594444
 20
34.854444
 30
0.0
 10
116.769444
 20
33.055278
 30
0.0
 10
118.709722
 20
32.631944
 30
0.0
 10
123.648611
 20
32.667222
 30
0.0
  0
SPLINE
  5
167
100
AcDbEntity
  8
0
 62
7
100
AcDbSpline
 70
8
 71
3
 72
8
 73
4
 74
0
 40
0
 40
0
 40
0
 40
0
 40
1
 40
1
 40
1
 40
1
 10
123.648611
 20
32.667222
 30
0.0
 10
127.740833
 20
32.667222
 30
0.0
 10
128.481667
 20
32.773056
 30
0.0
 10
130.598333
 20
33.619722
 30
0.0
  0
SPLINE
  5
168
100
AcDbEntity
  8
0
 62
7
100
AcDbSpline
 70
8
 71
3
 72
8
 73
4
 74
0
 40
0
 40
0
 40
0
 40
0
 40
1
 40
1
 40
1
 40
1
 10
130.598333
 20
33.619722
 30
0.0
 10
133.843889
 20
34.854444
 30
0.0
 10
136.383889
 20
36.583056
 30
0.0
 10
138.430000
 20
38.840833
 30
0.0
  0
SPLINE
  5
169
100
AcDbEntity
  8
0
 62
7
100
AcDbSpline
 70
8
 71
3
 72
8
 73
4
 74
0
 40
0
 40
0
 40
0
 40
0
 40
1
 40
1
 40
1
 40
1
 10
138.430000
 20
38.840833
 30
0.0
 10
140.193889
 20
40.781111
 30
0.0
 10
142.663333
 20
45.437778
 30
0.0
 10
143.086667
 20
47.554444
 30
0.0
  0
LWPOLYLINE
  5
16a
100
AcDbEntity
  8
0
 62
7
100
AcDbPolyline
 90
4
 70
0
 10
317.605833
 20
156.880278
 30
0.0
 10
266.700000
 20
157.021389
 30
0.0
 10
266.700000
 20
129.293056
 30
0.0
 10
266.700000
 20
129.293056
 30
0.0
  0
SPLINE
  5
16b
100
AcDbEntity
  8
0
 62
7
100
AcDbSpline
 70
8
 71
3
 72
8
 73
4
 74
0
 40
0
 40
0
 40
0
 40
0
 40
1
 40
1
 40
1
 40
1
 10
133.173611
 20
47.095833
 30
0.0
 10
130.845278
 20
43.109444
 30
0.0
 10
127.740833
 20
41.275000
 30
0.0
 10
123.295833
 20
41.275000
 30
0.0
  0
SPLINE
  5
16c
100
AcDbEntity
  8
0
 62
7
100
AcDbSpline
 70
8
 71
3
 72
8
 73
4
 74
0
 40
0
 40
0
 40
0
 40
0
 40
1
 40
1
 40
1
 40
1
 10
123.295833
 20
41.275000
 30
0.0
 10
120.861667
 20
41.275000
 30
0.0
 10
120.191389
 20
41.416111
 30
0.0
 10
118.392222
 20
42.333333
 30
0.0
  0
SPLINE
  5
16d
100
AcDbEntity
  8
0
 62
7
100
AcDbSpline
 70
8
 71
3
 72
8
 73
4
 74
0
 40
0
 40
0
 40
0
 40
0
 40
1
 40
1
 40
1
 40
1
 10
118.392222
 20
42.333333
 30
0.0
 10
114.617500
 20
44.238333
 30
0.0
 10
112.677222
 20
47.307500
 30
0.0
 10
112.148056
 20
52.175833
 30
0.0
  0
SPLINE
  5
16e
100
AcDbEntity
  8
0
 62
7
100
AcDbSpline
 70
8
 71
3
 72
8
 73
4
 74
0
 40
0
 40
0
 40
0
 40
0
 40
1
 40
1
 40
1
 40
1
 10
112.148056
 20
52.175833
 30
0.0
 10
111.760000
 20
56.056389
 30
0.0
 10
111.760000
 20
66.216389
 30
0.0
 10
112.148056
 20
70.449722
 30
0.0
  0
SPLINE
  5
16f
100
AcDbEntity
  8
0
 62
7
100
AcDbSpline
 70
8
 71
3
 72
8
 73
4
 74
0
 40
0
 40
0
 40
0
 40
0
 40
1
 40
1
 40
1
 40
1
 10
112.148056
 20
70.449722
 30
0.0
 10
112.500833
 20
74.012778
 30
0.0
 10
113.453333
 20
76.235278
 30
0.0
 10
115.499444
 20
78.351944
 30
0.0
  0
SPLINE
  5
170
100
AcDbEntity
  8
0
 62
7
100
AcDbSpline
 70
8
 71
3
 72
8
 73
4
 74
0
 40
0
 40
0
 40
0
 40
0
 40
1
 40
1
 40
1
 40
1
 10
115.499444
 20
78.351944
 30
0.0
 10
118.215833
 20
81.138889
 30
0.0
 10
123.295833
 20
82.232500
 30
0.0
 10
127.070556
 20
80.786111
 30
0.0
  0
SPLINE
  5
171
100
AcDbEntity
  8
0
 62
7
100
AcDbSpline
 70
8
 71
3
 72
8
 73
4
 74
0
 40
0
 40
0
 40
0
 40
0
 40
1
 40
1
 40
1
 40
1
 10
127.070556
 20
80.786111
 30
0.0
 10
129.645833
 20
79.833611
 30
0.0
 10
132.256389
 20
77.505278
 30
0.0
 10
133.350000
 20
75.176944
 30
0.0
  0
LWPOLYLINE
  5
172
100
AcDbEntity
  8
0
 62
7
100
AcDbPolyline
 90
5
 70
0
 10
143.086667
 20
47.554444
 30
0.0
 10
143.333611
 20
48.683333
 30
0.0
 10
138.712222
 20
48.683333
 30
0.0
 10
134.126111
 20
48.683333
 30
0.0
 10
133.173611
 20
47.095833
 30
0.0
  0
SPLINE
  5
173
100
AcDbEntity
  8
0
 62
7
100
AcDbSpline
 70
8
 71
3
 72
8
 73
4
 74
0
 40
0
 40
0
 40
0
 40
0
 40
1
 40
1
 40
1
 40
1
 10
138.712222
 20
73.377778
 30
0.0
 10
143.827500
 20
73.377778
 30
0.0
 10
143.686389
 20
73.271944
 30
0.0
 10
142.663333
 20
76.200000
 30
0.0
  0
SPLINE
  5
174
100
AcDbEntity
  8
0
 62
7
100
AcDbSpline
 70
8
 71
3
 72
8
 73
4
 74
0
 40
0
 40
0
 40
0
 40
0
 40
1
 40
1
 40
1
 40
1
 10
142.663333
 20
76.200000
 30
0.0
 10
140.440833
 20
82.620556
 30
0.0
 10
135.396111
 20
87.594722
 30
0.0
 10
129.151944
 20
89.464444
 30
0.0
  0
SPLINE
  5
175
100
AcDbEntity
  8
0
 62
7
100
AcDbSpline
 70
8
 71
3
 72
8
 73
4
 74
0
 40
0
 40
0
 40
0
 40
0
 40
1
 40
1
 40
1
 40
1
 10
129.151944
 20
89.464444
 30
0.0
 10
127.141111
 20
90.064167
 30
0.0
 10
122.449167
 20
90.346389
 30
0.0
 10
120.120833
 20
89.993611
 30
0.0
  0
LWPOLYLINE
  5
176
100
AcDbEntity
  8
0
 62
7
100
AcDbPolyline
 90
3
 70
0
 10
133.350000
 20
75.176944
 30
0.0
 10
134.161389
 20
73.377778
 30
0.0
 10
138.712222
 20
73.377778
 30
0.0
  0
SPLINE
  5
177
100
AcDbEntity
  8
0
 62
7
100
AcDbSpline
 70
8
 71
3
 72
8
 73
4
 74
0
 40
0
 40
0
 40
0
 40
0
 40
1
 40
1
 40
1
 40
1
 10
253.470833
 20
90.099444
 30
0.0
 10
253.082778
 20
90.028889
 30
0.0
 10
251.918611
 20
89.781944
 30
0.0
 10
250.860278
 20
89.570278
 30
0.0
  0
SPLINE
  5
178
100
AcDbEntity
  8
0
 62
7
100
AcDbSpline
 70
8
 71
3
 72
8
 73
4
 74
0
 40
0
 40
0
 40
0
 40
0
 40
1
 40
1
 40
1
 40
1
 10
250.860278
 20
89.570278
 30
0.0
 10
247.720556
 20
88.935278
 30
0.0
 10
244.228056
 20
86.924444
 30
0.0
 10
241.441111
 20
84.172778
 30
0.0
  0
SPLINE
  5
179
100
AcDbEntity
  8
0
 62
7
100
AcDbSpline
 70
8
 71
3
 72
8
 73
4
 74
0
 40
0
 40
0
 40
0
 40
0
 40
1
 40
1
 40
1
 40
1
 10
241.441111
 20
84.172778
 30
0.0
 10
236.361111
 20
79.092778
 30
0.0
 10
235.479167
 20
75.141667
 30
0.0
 10
235.761389
 20
59.090278
 30
0.0
  0
SPLINE
  5
17a
100
AcDbEntity
  8
0
 62
7
100
AcDbSpline
 70
8
 71
3
 72
8
 73
4
 74
0
 40
0
 40
0
 40
0
 40
0
 40
1
 40
1
 40
1
 40
1
 10
235.761389
 20
59.090278
 30
0.0
 10
235.867222
 20
54.045556
 30
0.0
 10
236.114167
 20
48.895000
 30
0.0
 10
236.325833
 20
47.660278
 30
0.0
  0
SPLINE
  5
17b
100
AcDbEntity
  8
0
 62
7
100
AcDbSpline
 70
8
 71
3
 72
8
 73
4
 74
0
 40
0
 40
0
 40
0
 40
0
 40
1
 40
1
 40
1
 40
1
 10
236.325833
 20
47.660278
 30
0.0
 10
236.890278
 20
44.626389
 30
0.0
 10
238.407222
 20
41.733611
 30
0.0
 10
240.947222
 20
39.017222
 30
0.0
  0
SPLINE
  5
17c
100
AcDbEntity
  8
0
 62
7
100
AcDbSpline
 70
8
 71
3
 72
8
 73
4
 74
0
 40
0
 40
0
 40
0
 40
0
 40
1
 40
1
 40
1
 40
1
 10
240.947222
 20
39.017222
 30
0.0
 10
243.451944
 20
36.336111
 30
0.0
 10
245.498056
 20
34.960278
 30
0.0
 10
248.884722
 20
33.619722
 30
0.0
  0
SPLINE
  5
17d
100
AcDbEntity
  8
0
 62
7
100
AcDbSpline
 70
8
 71
3
 72
8
 73
4
 74
0
 40
0
 40
0
 40
0
 40
0
 40
1
 40
1
 40
1
 40
1
 10
248.884722
 20
33.619722
 30
0.0
 10
251.107222
 20
32.773056
 30
0.0
 10
251.812778
 20
32.667222
 30
0.0
 10
255.763889
 20
32.667222
 30
0.0
  0
SPLINE
  5
17e
100
AcDbEntity
  8
0
 62
7
100
AcDbSpline
 70
8
 71
3
 72
8
 73
4
 74
0
 40
0
 40
0
 40
0
 40
0
 40
1
 40
1
 40
1
 40
1
 10
255.763889
 20
32.667222
 30
0.0
 10
259.503333
 20
32.631944
 30
0.0
 10
260.526389
 20
32.773056
 30
0.0
 10
262.537222
 20
33.443333
 30
0.0
  0
SPLINE
  5
17f
100
AcDbEntity
  8
0
 62
7
100
AcDbSpline
 70
8
 71
3
 72
8
 73
4
 74
0
 40
0
 40
0
 40
0
 40
0
 40
1
 40
1
 40
1
 40
1
 10
262.537222
 20
33.443333
 30
0.0
 10
266.276667
 20
34.748611
 30
0.0
 10
269.204722
 20
36.865278
 30
0.0
 10
272.344444
 20
40.534167
 30
0.0
  0
SPLINE
  5
180
100
AcDbEntity
  8
0
 62
7
100
AcDbSpline
 70
8
 71
3
 72
8
 73
4
 74
0
 40
0
 40
0
 40
0
 40
0
 40
1
 40
1
 40
1
 40
1
 10
272.344444
 20
40.534167
 30
0.0
 10
273.402778
 20
41.804167
 30
0.0
 10
275.096111
 20
45.402500
 30
0.0
 10
275.695833
 20
47.625000
 30
0.0
  0
SPLINE
  5
181
100
AcDbEntity
  8
0
 62
7
100
AcDbSpline
 70
8
 71
3
 72
8
 73
4
 74
0
 40
0
 40
0
 40
0
 40
0
 40
1
 40
1
 40
1
 40
1
 10
275.695833
 20
47.625000
 30
0.0
 10
276.083889
 20
49.036111
 30
0.0
 10
276.225000
 20
51.611389
 30
0.0
 10
276.225000
 20
56.903056
 30
0.0
  0
LWPOLYLINE
  5
182
100
AcDbEntity
  8
0
 62
7
100
AcDbPolyline
 90
1
 70
1
 10
120.120833
 20
89.993611
 30
0.0
  0
SPLINE
  5
183
100
AcDbEntity
  8
0
 62
7
100
AcDbSpline
 70
8
 71
3
 72
8
 73
4
 74
0
 40
0
 40
0
 40
0
 40
0
 40
1
 40
1
 40
1
 40
1
 10
267.476111
 20
52.951944
 30
0.0
 10
267.370278
 20
49.000833
 30
0.0
 10
266.276667
 20
46.496111
 30
0.0
 10
263.666111
 20
44.132500
 30
0.0
  0
SPLINE
  5
184
100
AcDbEntity
  8
0
 62
7
100
AcDbSpline
 70
8
 71
3
 72
8
 73
4
 74
0
 40
0
 40
0
 40
0
 40
0
 40
1
 40
1
 40
1
 40
1
 10
263.666111
 20
44.132500
 30
0.0
 10
261.408333
 20
42.086389
 30
0.0
 10
259.291667
 20
41.275000
 30
0.0
 10
256.081389
 20
41.275000
 30
0.0
  0
SPLINE
  5
185
100
AcDbEntity
  8
0
 62
7
100
AcDbSpline
 70
8
 71
3
 72
8
 73
4
 74
0
 40
0
 40
0
 40
0
 40
0
 40
1
 40
1
 40
1
 40
1
 10
256.081389
 20
41.275000
 30
0.0
 10
250.401667
 20
41.275000
 30
0.0
 10
246.203611
 20
44.696944
 30
0.0
 10
245.004167
 20
50.270833
 30
0.0
  0
SPLINE
  5
186
100
AcDbEntity
  8
0
 62
7
100
AcDbSpline
 70
8
 71
3
 72
8
 73
4
 74
0
 40
0
 40
0
 40
0
 40
0
 40
1
 40
1
 40
1
 40
1
 10
245.004167
 20
50.270833
 30
0.0
 10
244.369167
 20
53.269444
 30
0.0
 10
244.263333
 20
68.580000
 30
0.0
 10
244.863056
 20
71.825556
 30
0.0
  0
SPLINE
  5
187
100
AcDbEntity
  8
0
 62
7
100
AcDbSpline
 70
8
 71
3
 72
8
 73
4
 74
0
 40
0
 40
0
 40
0
 40
0
 40
1
 40
1
 40
1
 40
1
 10
244.863056
 20
71.825556
 30
0.0
 10
246.203611
 20
79.128056
 30
0.0
 10
253.153333
 20
83.255556
 30
0.0
 10
259.891389
 20
80.715556
 30
0.0
  0
SPLINE
  5
188
100
AcDbEntity
  8
0
 62
7
100
AcDbSpline
 70
8
 71
3
 72
8
 73
4
 74
0
 40
0
 40
0
 40
0
 40
0
 40
1
 40
1
 40
1
 40
1
 10
259.891389
 20
80.715556
 30
0.0
 10
262.290278
 20
79.833611
 30
0.0
 10
265.676944
 20
76.658611
 30
0.0
 10
266.347222
 20
74.647778
 30
0.0
  0
LWPOLYLINE
  5
189
100
AcDbEntity
  8
0
 62
7
100
AcDbPolyline
 90
9
 70
0
 10
276.225000
 20
56.903056
 30
0.0
 10
276.225000
 20
64.205556
 30
0.0
 10
266.170833
 20
64.205556
 30
0.0
 10
256.116667
 20
64.205556
 30
0.0
 10
256.116667
 20
60.148611
 30
0.0
 10
256.116667
 20
56.091667
 30
0.0
 10
261.866944
 20
56.021111
 30
0.0
 10
267.581944
 20
55.915278
 30
0.0
 10
267.476111
 20
52.951944
 30
0.0
  0
SPLINE
  5
18a
100
AcDbEntity
  8
0
 62
7
100
AcDbSpline
 70
8
 71
3
 72
8
 73
4
 74
0
 40
0
 40
0
 40
0
 40
0
 40
1
 40
1
 40
1
 40
1
 10
275.695833
 20
74.718333
 30
0.0
 10
275.237222
 20
77.328889
 30
0.0
 10
272.803056
 20
81.668056
 30
0.0
 10
270.510000
 20
84.031667
 30
0.0
  0
SPLINE
  5
18b
100
AcDbEntity
  8
0
 62
7
100
AcDbSpline
 70
8
 71
3
 72
8
 73
4
 74
0
 40
0
 40
0
 40
0
 40
0
 40
1
 40
1
 40
1
 40
1
 10
270.510000
 20
84.031667
 30
0.0
 10
267.793611
 20
86.818611
 30
0.0
 10
265.923889
 20
88.018056
 30
0.0
 10
262.748889
 20
89.111667
 30
0.0
  0
SPLINE
  5
18c
100
AcDbEntity
  8
0
 62
7
100
AcDbSpline
 70
8
 71
3
 72
8
 73
4
 74
0
 40
0
 40
0
 40
0
 40
0
 40
1
 40
1
 40
1
 40
1
 10
262.748889
 20
89.111667
 30
0.0
 10
260.385278
 20
89.923056
 30
0.0
 10
255.093611
 20
90.487500
 30
0.0
 10
253.470833
 20
90.099444
 30
0.0
  0
LWPOLYLINE
  5
18d
100
AcDbEntity
  8
0
 62
7
100
AcDbPolyline
 90
5
 70
0
 10
266.347222
 20
74.647778
 30
0.0
 10
266.770556
 20
73.377778
 30
0.0
 10
271.356667
 20
73.377778
 30
0.0
 10
275.942778
 20
73.377778
 30
0.0
 10
275.695833
 20
74.718333
 30
0.0
  0
LWPOLYLINE
  5
18e
100
AcDbEntity
  8
0
 62
7
100
AcDbPolyline
 90
1
 70
1
 10
253.470833
 20
90.099444
 30
0.0
  0
SPLINE
  5
18f
100
AcDbEntity
  8
0
 62
7
100
AcDbSpline
 70
8
 71
3
 72
8
 73
4
 74
0
 40
0
 40
0
 40
0
 40
0
 40
1
 40
1
 40
1
 40
1
 10
21.978056
 20
53.022500
 30
0.0
 10
23.071667
 20
50.729444
 30
0.0
 10
25.717500
 20
45.261389
 30
0.0
 10
27.869444
 20
40.816389
 30
0.0
  0
LWPOLYLINE
  5
190
100
AcDbEntity
  8
0
 62
7
100
AcDbPolyline
 90
9
 70
0
 10
0.352778
 20
61.383333
 30
0.0
 10
0.352778
 20
32.773056
 30
0.0
 10
4.691944
 20
32.878889
 30
0.0
 10
8.995833
 20
32.984722
 30
0.0
 10
9.101667
 20
45.085000
 30
0.0
 10
9.172222
 20
57.150000
 30
0.0
 10
14.569722
 20
57.150000
 30
0.0
 10
20.002500
 20
57.150000
 30
0.0
 10
21.978056
 20
53.022500
 30
0.0
  0
SPLINE
  5
191
100
AcDbEntity
  8
0
 62
7
100
AcDbSpline
 70
8
 71
3
 72
8
 73
4
 74
0
 40
0
 40
0
 40
0
 40
0
 40
1
 40
1
 40
1
 40
1
 10
36.865278
 20
32.808333
 30
0.0
 10
39.687500
 20
32.808333
 30
0.0
 10
41.980556
 20
32.843611
 30
0.0
 10
41.980556
 20
32.914167
 30
0.0
  0
SPLINE
  5
192
100
AcDbEntity
  8
0
 62
7
100
AcDbSpline
 70
8
 71
3
 72
8
 73
4
 74
0
 40
0
 40
0
 40
0
 40
0
 40
1
 40
1
 40
1
 40
1
 10
41.980556
 20
32.914167
 30
0.0
 10
41.980556
 20
32.949444
 30
0.0
 10
40.604722
 20
35.595278
 30
0.0
 10
38.946667
 20
38.805556
 30
0.0
  0
SPLINE
  5
193
100
AcDbEntity
  8
0
 62
7
100
AcDbSpline
 70
8
 71
3
 72
8
 73
4
 74
0
 40
0
 40
0
 40
0
 40
0
 40
1
 40
1
 40
1
 40
1
 10
38.946667
 20
38.805556
 30
0.0
 10
37.288611
 20
42.015833
 30
0.0
 10
34.360556
 20
47.660278
 30
0.0
 10
32.420278
 20
51.364444
 30
0.0
  0
LWPOLYLINE
  5
194
100
AcDbEntity
  8
0
 62
7
100
AcDbPolyline
 90
3
 70
0
 10
27.869444
 20
40.816389
 30
0.0
 10
31.785278
 20
32.808333
 30
0.0
 10
36.865278
 20
32.808333
 30
0.0
  0
SPLINE
  5
195
100
AcDbEntity
  8
0
 62
7
100
AcDbSpline
 70
8
 71
3
 72
8
 73
4
 74
0
 40
0
 40
0
 40
0
 40
0
 40
1
 40
1
 40
1
 40
1
 10
30.903333
 20
59.019722
 30
0.0
 10
33.266944
 20
60.183889
 30
0.0
 10
35.912778
 20
62.582778
 30
0.0
 10
37.429722
 20
64.946389
 30
0.0
  0
SPLINE
  5
196
100
AcDbEntity
  8
0
 62
7
100
AcDbSpline
 70
8
 71
3
 72
8
 73
4
 74
0
 40
0
 40
0
 40
0
 40
0
 40
1
 40
1
 40
1
 40
1
 10
37.429722
 20
64.946389
 30
0.0
 10
38.735000
 20
66.992500
 30
0.0
 10
39.863889
 20
71.014167
 30
0.0
 10
39.863889
 20
73.730556
 30
0.0
  0
SPLINE
  5
197
100
AcDbEntity
  8
0
 62
7
100
AcDbSpline
 70
8
 71
3
 72
8
 73
4
 74
0
 40
0
 40
0
 40
0
 40
0
 40
1
 40
1
 40
1
 40
1
 10
39.863889
 20
73.730556
 30
0.0
 10
39.863889
 20
76.129444
 30
0.0
 10
38.876111
 20
79.833611
 30
0.0
 10
37.676667
 20
81.879722
 30
0.0
  0
SPLINE
  5
198
100
AcDbEntity
  8
0
 62
7
100
AcDbSpline
 70
8
 71
3
 72
8
 73
4
 74
0
 40
0
 40
0
 40
0
 40
0
 40
1
 40
1
 40
1
 40
1
 10
37.676667
 20
81.879722
 30
0.0
 10
36.300833
 20
84.208056
 30
0.0
 10
33.125833
 20
87.030278
 30
0.0
 10
30.585833
 20
88.159167
 30
0.0
  0
SPLINE
  5
199
100
AcDbEntity
  8
0
 62
7
100
AcDbSpline
 70
8
 71
3
 72
8
 73
4
 74
0
 40
0
 40
0
 40
0
 40
0
 40
1
 40
1
 40
1
 40
1
 10
30.585833
 20
88.159167
 30
0.0
 10
27.269722
 20
89.676111
 30
0.0
 10
24.130000
 20
89.958333
 30
0.0
 10
11.641667
 20
89.958333
 30
0.0
  0
LWPOLYLINE
  5
19a
100
AcDbEntity
  8
0
 62
7
100
AcDbPolyline
 90
3
 70
0
 10
32.420278
 20
51.364444
 30
0.0
 10
28.927778
 20
58.067222
 30
0.0
 10
30.903333
 20
59.019722
 30
0.0
  0
SPLINE
  5
19b
100
AcDbEntity
  8
0
 62
7
100
AcDbSpline
 70
8
 71
3
 72
8
 73
4
 74
0
 40
0
 40
0
 40
0
 40
0
 40
1
 40
1
 40
1
 40
1
 10
25.294167
 20
81.738611
 30
0.0
 10
29.386389
 20
80.856667
 30
0.0
 10
31.573611
 20
78.069722
 30
0.0
 10
31.573611
 20
73.730556
 30
0.0
  0
SPLINE
  5
19c
100
AcDbEntity
  8
0
 62
7
100
AcDbSpline
 70
8
 71
3
 72
8
 73
4
 74
0
 40
0
 40
0
 40
0
 40
0
 40
1
 40
1
 40
1
 40
1
 10
31.573611
 20
73.730556
 30
0.0
 10
31.538333
 20
69.673611
 30
0.0
 10
28.998333
 20
66.357500
 30
0.0
 10
25.047222
 20
65.263889
 30
0.0
  0
SPLINE
  5
19d
100
AcDbEntity
  8
0
 62
7
100
AcDbSpline
 70
8
 71
3
 72
8
 73
4
 74
0
 40
0
 40
0
 40
0
 40
0
 40
1
 40
1
 40
1
 40
1
 10
25.047222
 20
65.263889
 30
0.0
 10
24.376944
 20
65.087500
 30
0.0
 10
20.531667
 20
64.911111
 30
0.0
 10
16.510000
 20
64.911111
 30
0.0
  0
LWPOLYLINE
  5
19e
100
AcDbEntity
  8
0
 62
7
100
AcDbPolyline
 90
4
 70
0
 10
11.641667
 20
89.958333
 30
0.0
 10
0.352778
 20
89.958333
 30
0.0
 10
0.352778
 20
61.383333
 30
0.0
 10
0.352778
 20
61.383333
 30
0.0
  0
SPLINE
  5
19f
100
AcDbEntity
  8
0
 62
7
100
AcDbSpline
 70
8
 71
3
 72
8
 73
4
 74
0
 40
0
 40
0
 40
0
 40
0
 40
1
 40
1
 40
1
 40
1
 10
16.157222
 20
82.197222
 30
0.0
 10
20.461111
 20
82.197222
 30
0.0
 10
23.953611
 20
82.020833
 30
0.0
 10
25.294167
 20
81.738611
 30
0.0
  0
LWPOLYLINE
  5
1a0
100
AcDbEntity
  8
0
 62
7
100
AcDbPolyline
 90
5
 70
0
 10
16.510000
 20
64.911111
 30
0.0
 10
9.172222
 20
64.911111
 30
0.0
 10
9.172222
 20
73.554167
 30
0.0
 10
9.172222
 20
82.197222
 30
0.0
 10
16.157222
 20
82.197222
 30
0.0
  0
SPLINE
  5
1a1
100
AcDbEntity
  8
0
 62
7
100
AcDbSpline
 70
8
 71
3
 72
8
 73
4
 74
0
 40
0
 40
0
 40
0
 40
0
 40
1
 40
1
 40
1
 40
1
 10
65.828333
 20
83.361389
 30
0.0
 10
63.605833
 20
77.117222
 30
0.0
 10
59.654722
 20
66.286944
 30
0.0
 10
56.973611
 20
59.090278
 30
0.0
  0
SPLINE
  5
1a2
100
AcDbEntity
  8
0
 62
7
100
AcDbSpline
 70
8
 71
3
 72
8
 73
4
 74
0
 40
0
 40
0
 40
0
 40
0
 40
1
 40
1
 40
1
 40
1
 10
56.973611
 20
59.090278
 30
0.0
 10
56.338611
 20
57.361667
 30
0.0
 10
55.421389
 20
54.821667
 30
0.0
 10
54.927500
 20
53.445833
 30
0.0
  0
SPLINE
  5
1a3
100
AcDbEntity
  8
0
 62
7
100
AcDbSpline
 70
8
 71
3
 72
8
 73
4
 74
0
 40
0
 40
0
 40
0
 40
0
 40
1
 40
1
 40
1
 40
1
 10
54.927500
 20
53.445833
 30
0.0
 10
52.422778
 20
46.496111
 30
0.0
 10
49.565278
 20
38.699722
 30
0.0
 10
48.648056
 20
36.265556
 30
0.0
  0
SPLINE
  5
1a4
100
AcDbEntity
  8
0
 62
7
100
AcDbSpline
 70
8
 71
3
 72
8
 73
4
 74
0
 40
0
 40
0
 40
0
 40
0
 40
1
 40
1
 40
1
 40
1
 10
48.648056
 20
36.265556
 30
0.0
 10
48.083611
 20
34.748611
 30
0.0
 10
47.625000
 20
33.372778
 30
0.0
 10
47.625000
 20
33.161111
 30
0.0
  0
SPLINE
  5
1a5
100
AcDbEntity
  8
0
 62
7
100
AcDbSpline
 70
8
 71
3
 72
8
 73
4
 74
0
 40
0
 40
0
 40
0
 40
0
 40
1
 40
1
 40
1
 40
1
 10
47.625000
 20
33.161111
 30
0.0
 10
47.625000
 20
32.914167
 30
0.0
 10
49.106667
 20
32.808333
 30
0.0
 10
52.140556
 20
32.878889
 30
0.0
  0
LWPOLYLINE
  5
1a6
100
AcDbEntity
  8
0
 62
7
100
AcDbPolyline
 90
1
 70
1
 10
25.294167
 20
81.738611
 30
0.0
  0
SPLINE
  5
1a7
100
AcDbEntity
  8
0
 62
7
100
AcDbSpline
 70
8
 71
3
 72
8
 73
4
 74
0
 40
0
 40
0
 40
0
 40
0
 40
1
 40
1
 40
1
 40
1
 10
58.208333
 20
37.429722
 30
0.0
 10
59.090278
 20
39.899167
 30
0.0
 10
60.078056
 20
42.721389
 30
0.0
 10
60.430833
 20
43.709167
 30
0.0
  0
LWPOLYLINE
  5
1a8
100
AcDbEntity
  8
0
 62
7
100
AcDbPolyline
 90
3
 70
0
 10
52.140556
 20
32.878889
 30
0.0
 10
56.620833
 20
32.984722
 30
0.0
 10
58.208333
 20
37.429722
 30
0.0
  0
SPLINE
  5
1a9
100
AcDbEntity
  8
0
 62
7
100
AcDbSpline
 70
8
 71
3
 72
8
 73
4
 74
0
 40
0
 40
0
 40
0
 40
0
 40
1
 40
1
 40
1
 40
1
 10
83.537778
 20
42.615556
 30
0.0
 10
84.102222
 20
40.992778
 30
0.0
 10
85.090000
 20
38.135278
 30
0.0
 10
85.725000
 20
36.230278
 30
0.0
  0
LWPOLYLINE
  5
1aa
100
AcDbEntity
  8
0
 62
7
100
AcDbPolyline
 90
5
 70
0
 10
60.430833
 20
43.709167
 30
0.0
 10
61.065833
 20
45.508333
 30
0.0
 10
71.755000
 20
45.508333
 30
0.0
 10
82.479444
 20
45.508333
 30
0.0
 10
83.537778
 20
42.615556
 30
0.0
  0
SPLINE
  5
1ab
100
AcDbEntity
  8
0
 62
7
100
AcDbSpline
 70
8
 71
3
 72
8
 73
4
 74
0
 40
0
 40
0
 40
0
 40
0
 40
1
 40
1
 40
1
 40
1
 10
91.404722
 20
32.808333
 30
0.0
 10
93.909444
 20
32.808333
 30
0.0
 10
95.955556
 20
32.914167
 30
0.0
 10
95.955556
 20
33.020000
 30
0.0
  0
SPLINE
  5
1ac
100
AcDbEntity
  8
0
 62
7
100
AcDbSpline
 70
8
 71
3
 72
8
 73
4
 74
0
 40
0
 40
0
 40
0
 40
0
 40
1
 40
1
 40
1
 40
1
 10
95.955556
 20
33.020000
 30
0.0
 10
95.955556
 20
33.266944
 30
0.0
 10
91.792778
 20
44.908611
 30
0.0
 10
89.781944
 20
50.270833
 30
0.0
  0
SPLINE
  5
1ad
100
AcDbEntity
  8
0
 62
7
100
AcDbSpline
 70
8
 71
3
 72
8
 73
4
 74
0
 40
0
 40
0
 40
0
 40
0
 40
1
 40
1
 40
1
 40
1
 10
89.781944
 20
50.270833
 30
0.0
 10
89.146944
 20
52.034722
 30
0.0
 10
87.947500
 20
55.280278
 30
0.0
 10
87.136111
 20
57.502778
 30
0.0
  0
SPLINE
  5
1ae
100
AcDbEntity
  8
0
 62
7
100
AcDbSpline
 70
8
 71
3
 72
8
 73
4
 74
0
 40
0
 40
0
 40
0
 40
0
 40
1
 40
1
 40
1
 40
1
 10
87.136111
 20
57.502778
 30
0.0
 10
86.324722
 20
59.725278
 30
0.0
 10
85.160556
 20
63.006111
 30
0.0
 10
84.490278
 20
64.734722
 30
0.0
  0
SPLINE
  5
1af
100
AcDbEntity
  8
0
 62
7
100
AcDbSpline
 70
8
 71
3
 72
8
 73
4
 74
0
 40
0
 40
0
 40
0
 40
0
 40
1
 40
1
 40
1
 40
1
 10
84.490278
 20
64.734722
 30
0.0
 10
83.855278
 20
66.498611
 30
0.0
 10
82.902778
 20
69.038611
 30
0.0
 10
82.408889
 20
70.379167
 30
0.0
  0
SPLINE
  5
1b0
100
AcDbEntity
  8
0
 62
7
100
AcDbSpline
 70
8
 71
3
 72
8
 73
4
 74
0
 40
0
 40
0
 40
0
 40
0
 40
1
 40
1
 40
1
 40
1
 10
82.408889
 20
70.379167
 30
0.0
 10
81.526944
 20
72.848611
 30
0.0
 10
77.328889
 20
84.490278
 30
0.0
 10
76.235278
 20
87.488889
 30
0.0
  0
SPLINE
  5
1b1
100
AcDbEntity
  8
0
 62
7
100
AcDbSpline
 70
8
 71
3
 72
8
 73
4
 74
0
 40
0
 40
0
 40
0
 40
0
 40
1
 40
1
 40
1
 40
1
 10
76.235278
 20
87.488889
 30
0.0
 10
75.318056
 20
90.028889
 30
0.0
 10
75.423889
 20
89.958333
 30
0.0
 10
71.649167
 20
89.958333
 30
0.0
  0
LWPOLYLINE
  5
1b2
100
AcDbEntity
  8
0
 62
7
100
AcDbPolyline
 90
3
 70
0
 10
85.725000
 20
36.230278
 30
0.0
 10
86.889167
 20
32.808333
 30
0.0
 10
91.404722
 20
32.808333
 30
0.0
  0
SPLINE
  5
1b3
100
AcDbEntity
  8
0
 62
7
100
AcDbSpline
 70
8
 71
3
 72
8
 73
4
 74
0
 40
0
 40
0
 40
0
 40
0
 40
1
 40
1
 40
1
 40
1
 10
76.023611
 20
65.405000
 30
0.0
 10
78.069722
 20
59.160833
 30
0.0
 10
79.727778
 20
53.904444
 30
0.0
 10
79.727778
 20
53.657500
 30
0.0
  0
SPLINE
  5
1b4
100
AcDbEntity
  8
0
 62
7
100
AcDbSpline
 70
8
 71
3
 72
8
 73
4
 74
0
 40
0
 40
0
 40
0
 40
0
 40
1
 40
1
 40
1
 40
1
 10
79.727778
 20
53.657500
 30
0.0
 10
79.727778
 20
53.375278
 30
0.0
 10
77.505278
 20
53.269444
 30
0.0
 10
71.790278
 20
53.269444
 30
0.0
  0
SPLINE
  5
1b5
100
AcDbEntity
  8
0
 62
7
100
AcDbSpline
 70
8
 71
3
 72
8
 73
4
 74
0
 40
0
 40
0
 40
0
 40
0
 40
1
 40
1
 40
1
 40
1
 10
71.790278
 20
53.269444
 30
0.0
 10
65.369722
 20
53.269444
 30
0.0
 10
63.852778
 20
53.375278
 30
0.0
 10
63.852778
 20
53.763333
 30
0.0
  0
SPLINE
  5
1b6
100
AcDbEntity
  8
0
 62
7
100
AcDbSpline
 70
8
 71
3
 72
8
 73
4
 74
0
 40
0
 40
0
 40
0
 40
0
 40
1
 40
1
 40
1
 40
1
 10
63.852778
 20
53.763333
 30
0.0
 10
63.852778
 20
54.186667
 30
0.0
 10
70.449722
 20
74.400833
 30
0.0
 10
71.331667
 20
76.658611
 30
0.0
  0
SPLINE
  5
1b7
100
AcDbEntity
  8
0
 62
7
100
AcDbSpline
 70
8
 71
3
 72
8
 73
4
 74
0
 40
0
 40
0
 40
0
 40
0
 40
1
 40
1
 40
1
 40
1
 10
71.331667
 20
76.658611
 30
0.0
 10
71.613889
 20
77.399444
 30
0.0
 10
71.790278
 20
77.540556
 30
0.0
 10
72.001944
 20
77.187778
 30
0.0
  0
SPLINE
  5
1b8
100
AcDbEntity
  8
0
 62
7
100
AcDbSpline
 70
8
 71
3
 72
8
 73
4
 74
0
 40
0
 40
0
 40
0
 40
0
 40
1
 40
1
 40
1
 40
1
 10
72.001944
 20
77.187778
 30
0.0
 10
72.178333
 20
76.940833
 30
0.0
 10
73.977500
 20
71.649167
 30
0.0
 10
76.023611
 20
65.405000
 30
0.0
  0
LWPOLYLINE
  5
1b9
100
AcDbEntity
  8
0
 62
7
100
AcDbPolyline
 90
4
 70
0
 10
71.649167
 20
89.958333
 30
0.0
 10
68.191944
 20
89.958333
 30
0.0
 10
65.828333
 20
83.361389
 30
0.0
 10
65.828333
 20
83.361389
 30
0.0
  0
LWPOLYLINE
  5
1ba
100
AcDbEntity
  8
0
 62
7
100
AcDbPolyline
 90
1
 70
1
 10
76.023611
 20
65.405000
 30
0.0
  0
LWPOLYLINE
  5
1bb
100
AcDbEntity
  8
0
 62
7
100
AcDbPolyline
 90
9
 70
1
 10
153.811111
 20
61.383333
 30
0.0
 10
153.811111
 20
32.808333
 30
0.0
 10
158.044444
 20
32.808333
 30
0.0
 10
162.277778
 20
32.808333
 30
0.0
 10
162.277778
 20
61.383333
 30
0.0
 10
162.277778
 20
89.958333
 30
0.0
 10
158.044444
 20
89.958333
 30
0.0
 10
153.811111
 20
89.958333
 30
0.0
 10
153.811111
 20
61.383333
 30
0.0
  0
SPLINE
  5
1bc
100
AcDbEntity
  8
0
 62
7
100
AcDbSpline
 70
8
 71
3
 72
8
 73
4
 74
0
 40
0
 40
0
 40
0
 40
0
 40
1
 40
1
 40
1
 40
1
 10
187.325000
 20
52.740278
 30
0.0
 10
187.325000
 20
63.711667
 30
0.0
 10
187.430833
 20
72.672222
 30
0.0
 10
187.607222
 20
72.672222
 30
0.0
  0
SPLINE
  5
1bd
100
AcDbEntity
  8
0
 62
7
100
AcDbSpline
 70
8
 71
3
 72
8
 73
4
 74
0
 40
0
 40
0
 40
0
 40
0
 40
1
 40
1
 40
1
 40
1
 10
187.607222
 20
72.672222
 30
0.0
 10
187.748333
 20
72.672222
 30
0.0
 10
188.806667
 20
71.155278
 30
0.0
 10
189.970833
 20
69.285556
 30
0.0
  0
SPLINE
  5
1be
100
AcDbEntity
  8
0
 62
7
100
AcDbSpline
 70
8
 71
3
 72
8
 73
4
 74
0
 40
0
 40
0
 40
0
 40
0
 40
1
 40
1
 40
1
 40
1
 10
189.970833
 20
69.285556
 30
0.0
 10
192.334444
 20
65.546111
 30
0.0
 10
194.945000
 20
61.418611
 30
0.0
 10
196.673611
 20
58.737500
 30
0.0
  0
SPLINE
  5
1bf
100
AcDbEntity
  8
0
 62
7
100
AcDbSpline
 70
8
 71
3
 72
8
 73
4
 74
0
 40
0
 40
0
 40
0
 40
0
 40
1
 40
1
 40
1
 40
1
 10
196.673611
 20
58.737500
 30
0.0
 10
199.001944
 20
55.139167
 30
0.0
 10
201.683056
 20
50.905833
 30
0.0
 10
203.058889
 20
48.753889
 30
0.0
  0
SPLINE
  5
1c0
100
AcDbEntity
  8
0
 62
7
100
AcDbSpline
 70
8
 71
3
 72
8
 73
4
 74
0
 40
0
 40
0
 40
0
 40
0
 40
1
 40
1
 40
1
 40
1
 10
203.058889
 20
48.753889
 30
0.0
 10
204.681667
 20
46.178611
 30
0.0
 10
208.562222
 20
40.075556
 30
0.0
 10
211.313889
 20
35.806944
 30
0.0
  0
LWPOLYLINE
  5
1c1
100
AcDbEntity
  8
0
 62
7
100
AcDbPolyline
 90
5
 70
0
 10
178.858333
 20
61.383333
 30
0.0
 10
178.858333
 20
32.808333
 30
0.0
 10
183.091667
 20
32.808333
 30
0.0
 10
187.325000
 20
32.808333
 30
0.0
 10
187.325000
 20
52.740278
 30
0.0
  0
SPLINE
  5
1c2
100
AcDbEntity
  8
0
 62
7
100
AcDbSpline
 70
8
 71
3
 72
8
 73
4
 74
0
 40
0
 40
0
 40
0
 40
0
 40
1
 40
1
 40
1
 40
1
 10
212.725000
 20
70.026389
 30
0.0
 10
212.725000
 20
58.102500
 30
0.0
 10
212.583889
 20
50.094444
 30
0.0
 10
212.407500
 20
50.094444
 30
0.0
  0
SPLINE
  5
1c3
100
AcDbEntity
  8
0
 62
7
100
AcDbSpline
 70
8
 71
3
 72
8
 73
4
 74
0
 40
0
 40
0
 40
0
 40
0
 40
1
 40
1
 40
1
 40
1
 10
212.407500
 20
50.094444
 30
0.0
 10
212.231111
 20
50.094444
 30
0.0
 10
211.243333
 20
51.399722
 30
0.0
 10
210.255556
 20
53.022500
 30
0.0
  0
SPLINE
  5
1c4
100
AcDbEntity
  8
0
 62
7
100
AcDbSpline
 70
8
 71
3
 72
8
 73
4
 74
0
 40
0
 40
0
 40
0
 40
0
 40
1
 40
1
 40
1
 40
1
 10
210.255556
 20
53.022500
 30
0.0
 10
207.151111
 20
57.996667
 30
0.0
 10
199.107778
 20
70.661389
 30
0.0
 10
194.133611
 20
78.422500
 30
0.0
  0
SPLINE
  5
1c5
100
AcDbEntity
  8
0
 62
7
100
AcDbSpline
 70
8
 71
3
 72
8
 73
4
 74
0
 40
0
 40
0
 40
0
 40
0
 40
1
 40
1
 40
1
 40
1
 10
194.133611
 20
78.422500
 30
0.0
 10
192.299167
 20
81.280000
 30
0.0
 10
190.076667
 20
84.772500
 30
0.0
 10
188.206944
 20
87.735833
 30
0.0
  0
LWPOLYLINE
  5
1c6
100
AcDbEntity
  8
0
 62
7
100
AcDbPolyline
 90
9
 70
0
 10
211.313889
 20
35.806944
 30
0.0
 10
213.254167
 20
32.773056
 30
0.0
 10
217.311111
 20
32.878889
 30
0.0
 10
221.368056
 20
32.984722
 30
0.0
 10
221.368056
 20
61.383333
 30
0.0
 10
221.368056
 20
89.781944
 30
0.0
 10
217.064167
 20
89.887778
 30
0.0
 10
212.725000
 20
89.993611
 30
0.0
 10
212.725000
 20
70.026389
 30
0.0
  0
SPLINE
  5
1c7
100
AcDbEntity
  8
0
 62
7
100
AcDbSpline
 70
8
 71
3
 72
8
 73
4
 74
0
 40
0
 40
0
 40
0
 40
0
 40
1
 40
1
 40
1
 40
1
 10
0.246944
 20
17.427222
 30
0.0
 10
0.105833
 20
17.286111
 30
0.0
 10
0.000000
 20
13.299722
 30
0.0
 10
0.000000
 20
8.572500
 30
0.0
  0
LWPOLYLINE
  5
1c8
100
AcDbEntity
  8
0
 62
7
100
AcDbPolyline
 90
6
 70
0
 10
188.206944
 20
87.735833
 30
0.0
 10
186.795833
 20
89.958333
 30
0.0
 10
182.844722
 20
89.958333
 30
0.0
 10
178.858333
 20
89.958333
 30
0.0
 10
178.858333
 20
61.383333
 30
0.0
 10
178.858333
 20
61.383333
 30
0.0
  0
SPLINE
  5
1c9
100
AcDbEntity
  8
0
 62
7
100
AcDbSpline
 70
8
 71
3
 72
8
 73
4
 74
0
 40
0
 40
0
 40
0
 40
0
 40
1
 40
1
 40
1
 40
1
 10
5.785556
 20
17.568333
 30
0.0
 10
2.892778
 20
17.603611
 30
0.0
 10
0.388056
 20
17.533056
 30
0.0
 10
0.246944
 20
17.427222
 30
0.0
  0
LWPOLYLINE
  5
1ca
100
AcDbEntity
  8
0
 62
7
100
AcDbPolyline
 90
23
 70
0
 10
0.000000
 20
8.572500
 30
0.0
 10
0.000000
 20
0.000000
 30
0.0
 10
5.644444
 20
0.000000
 30
0.0
 10
11.288889
 20
0.000000
 30
0.0
 10
11.288889
 20
1.234722
 30
0.0
 10
11.288889
 20
2.434167
 30
0.0
 10
6.985000
 20
2.540000
 30
0.0
 10
2.645833
 20
2.645833
 30
0.0
 10
2.645833
 20
5.115278
 30
0.0
 10
2.645833
 20
7.584722
 30
0.0
 10
6.279444
 20
7.690556
 30
0.0
 10
9.913056
 20
7.796389
 30
0.0
 10
9.807222
 20
8.925278
 30
0.0
 10
9.701389
 20
10.054167
 30
0.0
 10
6.103056
 20
10.160000
 30
0.0
 10
2.469444
 20
10.265833
 30
0.0
 10
2.469444
 20
12.523611
 30
0.0
 10
2.469444
 20
14.781389
 30
0.0
 10
6.808611
 20
14.887222
 30
0.0
 10
11.112500
 20
14.993056
 30
0.0
 10
11.112500
 20
16.227778
 30
0.0
 10
11.112500
 20
17.462500
 30
0.0
 10
5.785556
 20
17.568333
 30
0.0
  0
LWPOLYLINE
  5
1cb
100
AcDbEntity
  8
0
 62
7
100
AcDbPolyline
 90
1
 70
1
 10
0.246944
 20
17.427222
 30
0.0
  0
SPLINE
  5
1cc
100
AcDbEntity
  8
0
 62
7
100
AcDbSpline
 70
8
 71
3
 72
8
 73
4
 74
0
 40
0
 40
0
 40
0
 40
0
 40
1
 40
1
 40
1
 40
1
 10
17.991667
 20
5.997222
 30
0.0
 10
17.991667
 20
9.313333
 30
0.0
 10
18.097500
 20
11.994444
 30
0.0
 10
18.273889
 20
11.994444
 30
0.0
  0
SPLINE
  5
1cd
100
AcDbEntity
  8
0
 62
7
100
AcDbSpline
 70
8
 71
3
 72
8
 73
4
 74
0
 40
0
 40
0
 40
0
 40
0
 40
1
 40
1
 40
1
 40
1
 10
18.273889
 20
11.994444
 30
0.0
 10
18.415000
 20
11.959167
 30
0.0
 10
20.178889
 20
9.313333
 30
0.0
 10
22.225000
 20
6.067778
 30
0.0
  0
SPLINE
  5
1ce
100
AcDbEntity
  8
0
 62
7
100
AcDbSpline
 70
8
 71
3
 72
8
 73
4
 74
0
 40
0
 40
0
 40
0
 40
0
 40
1
 40
1
 40
1
 40
1
 10
22.225000
 20
6.067778
 30
0.0
 10
25.858611
 20
0.282222
 30
0.0
 10
25.964444
 20
0.176389
 30
0.0
 10
27.269722
 20
0.070556
 30
0.0
  0
LWPOLYLINE
  5
1cf
100
AcDbEntity
  8
0
 62
7
100
AcDbPolyline
 90
5
 70
0
 10
15.522222
 20
8.819444
 30
0.0
 10
15.522222
 20
0.000000
 30
0.0
 10
16.756944
 20
0.000000
 30
0.0
 10
17.991667
 20
0.000000
 30
0.0
 10
17.991667
 20
5.997222
 30
0.0
  0
SPLINE
  5
1d0
100
AcDbEntity
  8
0
 62
7
100
AcDbSpline
 70
8
 71
3
 72
8
 73
4
 74
0
 40
0
 40
0
 40
0
 40
0
 40
1
 40
1
 40
1
 40
1
 10
23.953611
 20
8.290278
 30
0.0
 10
22.401389
 20
10.653889
 30
0.0
 10
19.508611
 20
15.204722
 30
0.0
 10
18.485556
 20
16.862778
 30
0.0
  0
SPLINE
  5
1d1
100
AcDbEntity
  8
0
 62
7
100
AcDbSpline
 70
8
 71
3
 72
8
 73
4
 74
0
 40
0
 40
0
 40
0
 40
0
 40
1
 40
1
 40
1
 40
1
 10
18.485556
 20
16.862778
 30
0.0
 10
18.097500
 20
17.427222
 30
0.0
 10
17.638889
 20
17.638889
 30
0.0
 10
16.756944
 20
17.638889
 30
0.0
  0
LWPOLYLINE
  5
1d2
100
AcDbEntity
  8
0
 62
7
100
AcDbPolyline
 90
9
 70
0
 10
27.269722
 20
0.070556
 30
0.0
 10
28.575000
 20
-0.035278
 30
0.0
 10
28.504444
 20
8.713611
 30
0.0
 10
28.398611
 20
17.462500
 30
0.0
 10
27.093333
 20
17.568333
 30
0.0
 10
25.752778
 20
17.674167
 30
0.0
 10
25.682222
 20
11.747500
 30
0.0
 10
25.576389
 20
5.820833
 30
0.0
 10
23.953611
 20
8.290278
 30
0.0
  0
SPLINE
  5
1d3
100
AcDbEntity
  8
0
 62
7
100
AcDbSpline
 70
8
 71
3
 72
8
 73
4
 74
0
 40
0
 40
0
 40
0
 40
0
 40
1
 40
1
 40
1
 40
1
 10
36.512500
 20
16.827500
 30
0.0
 10
34.148889
 20
15.522222
 30
0.0
 10
33.513889
 20
13.758333
 30
0.0
 10
33.513889
 20
8.643056
 30
0.0
  0
SPLINE
  5
1d4
100
AcDbEntity
  8
0
 62
7
100
AcDbSpline
 70
8
 71
3
 72
8
 73
4
 74
0
 40
0
 40
0
 40
0
 40
0
 40
1
 40
1
 40
1
 40
1
 10
33.513889
 20
8.643056
 30
0.0
 10
33.513889
 20
4.903611
 30
0.0
 10
33.619722
 20
4.233333
 30
0.0
 10
34.325278
 20
2.998611
 30
0.0
  0
SPLINE
  5
1d5
100
AcDbEntity
  8
0
 62
7
100
AcDbSpline
 70
8
 71
3
 72
8
 73
4
 74
0
 40
0
 40
0
 40
0
 40
0
 40
1
 40
1
 40
1
 40
1
 10
34.325278
 20
2.998611
 30
0.0
 10
35.877500
 20
0.246944
 30
0.0
 10
39.475833
 20
-0.776111
 30
0.0
 10
42.509722
 20
0.705556
 30
0.0
  0
SPLINE
  5
1d6
100
AcDbEntity
  8
0
 62
7
100
AcDbSpline
 70
8
 71
3
 72
8
 73
4
 74
0
 40
0
 40
0
 40
0
 40
0
 40
1
 40
1
 40
1
 40
1
 10
42.509722
 20
0.705556
 30
0.0
 10
44.908611
 20
1.869722
 30
0.0
 10
45.614167
 20
3.175000
 30
0.0
 10
45.790556
 20
6.773333
 30
0.0
  0
LWPOLYLINE
  5
1d7
100
AcDbEntity
  8
0
 62
7
100
AcDbPolyline
 90
4
 70
0
 10
16.756944
 20
17.638889
 30
0.0
 10
15.522222
 20
17.638889
 30
0.0
 10
15.522222
 20
8.819444
 30
0.0
 10
15.522222
 20
8.819444
 30
0.0
  0
SPLINE
  5
1d8
100
AcDbEntity
  8
0
 62
7
100
AcDbSpline
 70
8
 71
3
 72
8
 73
4
 74
0
 40
0
 40
0
 40
0
 40
0
 40
1
 40
1
 40
1
 40
1
 10
39.863889
 20
8.643056
 30
0.0
 10
39.863889
 20
7.408333
 30
0.0
 10
39.863889
 20
7.408333
 30
0.0
 10
41.451389
 20
7.408333
 30
0.0
  0
SPLINE
  5
1d9
100
AcDbEntity
  8
0
 62
7
100
AcDbSpline
 70
8
 71
3
 72
8
 73
4
 74
0
 40
0
 40
0
 40
0
 40
0
 40
1
 40
1
 40
1
 40
1
 10
41.451389
 20
7.408333
 30
0.0
 10
43.321111
 20
7.408333
 30
0.0
 10
43.638611
 20
6.949722
 30
0.0
 10
43.038889
 20
5.115278
 30
0.0
  0
SPLINE
  5
1da
100
AcDbEntity
  8
0
 62
7
100
AcDbSpline
 70
8
 71
3
 72
8
 73
4
 74
0
 40
0
 40
0
 40
0
 40
0
 40
1
 40
1
 40
1
 40
1
 10
43.038889
 20
5.115278
 30
0.0
 10
42.721389
 20
4.198056
 30
0.0
 10
42.227500
 20
3.668889
 30
0.0
 10
41.204444
 20
3.139722
 30
0.0
  0
SPLINE
  5
1db
100
AcDbEntity
  8
0
 62
7
100
AcDbSpline
 70
8
 71
3
 72
8
 73
4
 74
0
 40
0
 40
0
 40
0
 40
0
 40
1
 40
1
 40
1
 40
1
 10
41.204444
 20
3.139722
 30
0.0
 10
39.828611
 20
2.434167
 30
0.0
 10
39.722778
 20
2.434167
 30
0.0
 10
38.452778
 20
2.998611
 30
0.0
  0
SPLINE
  5
1dc
100
AcDbEntity
  8
0
 62
7
100
AcDbSpline
 70
8
 71
3
 72
8
 73
4
 74
0
 40
0
 40
0
 40
0
 40
0
 40
1
 40
1
 40
1
 40
1
 10
38.452778
 20
2.998611
 30
0.0
 10
36.900556
 20
3.704167
 30
0.0
 10
36.336111
 20
4.762500
 30
0.0
 10
36.089167
 20
7.443611
 30
0.0
  0
SPLINE
  5
1dd
100
AcDbEntity
  8
0
 62
7
100
AcDbSpline
 70
8
 71
3
 72
8
 73
4
 74
0
 40
0
 40
0
 40
0
 40
0
 40
1
 40
1
 40
1
 40
1
 10
36.089167
 20
7.443611
 30
0.0
 10
35.630556
 20
12.170833
 30
0.0
 10
37.006389
 20
14.816667
 30
0.0
 10
39.828611
 20
14.816667
 30
0.0
  0
SPLINE
  5
1de
100
AcDbEntity
  8
0
 62
7
100
AcDbSpline
 70
8
 71
3
 72
8
 73
4
 74
0
 40
0
 40
0
 40
0
 40
0
 40
1
 40
1
 40
1
 40
1
 10
39.828611
 20
14.816667
 30
0.0
 10
41.028056
 20
14.816667
 30
0.0
 10
41.380833
 20
14.640278
 30
0.0
 10
42.227500
 20
13.581944
 30
0.0
  0
SPLINE
  5
1df
100
AcDbEntity
  8
0
 62
7
100
AcDbSpline
 70
8
 71
3
 72
8
 73
4
 74
0
 40
0
 40
0
 40
0
 40
0
 40
1
 40
1
 40
1
 40
1
 10
42.227500
 20
13.581944
 30
0.0
 10
43.038889
 20
12.558889
 30
0.0
 10
43.462222
 20
12.347222
 30
0.0
 10
44.555833
 20
12.347222
 30
0.0
  0
SPLINE
  5
1e0
100
AcDbEntity
  8
0
 62
7
100
AcDbSpline
 70
8
 71
3
 72
8
 73
4
 74
0
 40
0
 40
0
 40
0
 40
0
 40
1
 40
1
 40
1
 40
1
 10
44.555833
 20
12.347222
 30
0.0
 10
45.790556
 20
12.347222
 30
0.0
 10
45.896389
 20
12.417778
 30
0.0
 10
45.684722
 20
13.158611
 30
0.0
  0
SPLINE
  5
1e1
100
AcDbEntity
  8
0
 62
7
100
AcDbSpline
 70
8
 71
3
 72
8
 73
4
 74
0
 40
0
 40
0
 40
0
 40
0
 40
1
 40
1
 40
1
 40
1
 10
45.684722
 20
13.158611
 30
0.0
 10
44.485278
 20
17.039167
 30
0.0
 10
40.075556
 20
18.838333
 30
0.0
 10
36.512500
 20
16.827500
 30
0.0
  0
LWPOLYLINE
  5
1e2
100
AcDbEntity
  8
0
 62
7
100
AcDbPolyline
 90
5
 70
0
 10
45.790556
 20
6.773333
 30
0.0
 10
45.931667
 20
9.877778
 30
0.0
 10
42.897778
 20
9.877778
 30
0.0
 10
39.863889
 20
9.877778
 30
0.0
 10
39.863889
 20
8.643056
 30
0.0
  0
SPLINE
  5
1e3
100
AcDbEntity
  8
0
 62
7
100
AcDbSpline
 70
8
 71
3
 72
8
 73
4
 74
0
 40
0
 40
0
 40
0
 40
0
 40
1
 40
1
 40
1
 40
1
 10
50.976389
 20
17.215556
 30
0.0
 10
50.870556
 20
16.968611
 30
0.0
 10
50.835278
 20
13.017500
 30
0.0
 10
50.870556
 20
8.466667
 30
0.0
  0
LWPOLYLINE
  5
1e4
100
AcDbEntity
  8
0
 62
7
100
AcDbPolyline
 90
1
 70
1
 10
36.512500
 20
16.827500
 30
0.0
  0
SPLINE
  5
1e5
100
AcDbEntity
  8
0
 62
7
100
AcDbSpline
 70
8
 71
3
 72
8
 73
4
 74
0
 40
0
 40
0
 40
0
 40
0
 40
1
 40
1
 40
1
 40
1
 10
52.281667
 20
17.568333
 30
0.0
 10
51.576111
 20
17.638889
 30
0.0
 10
51.082222
 20
17.497778
 30
0.0
 10
50.976389
 20
17.215556
 30
0.0
  0
LWPOLYLINE
  5
1e6
100
AcDbEntity
  8
0
 62
7
100
AcDbPolyline
 90
7
 70
0
 10
50.870556
 20
8.466667
 30
0.0
 10
50.976389
 20
0.176389
 30
0.0
 10
52.211111
 20
0.176389
 30
0.0
 10
53.445833
 20
0.176389
 30
0.0
 10
53.445833
 20
8.819444
 30
0.0
 10
53.445833
 20
17.462500
 30
0.0
 10
52.281667
 20
17.568333
 30
0.0
  0
SPLINE
  5
1e7
100
AcDbEntity
  8
0
 62
7
100
AcDbSpline
 70
8
 71
3
 72
8
 73
4
 74
0
 40
0
 40
0
 40
0
 40
0
 40
1
 40
1
 40
1
 40
1
 10
59.055000
 20
17.180278
 30
0.0
 10
58.984444
 20
16.933333
 30
0.0
 10
58.949167
 20
13.017500
 30
0.0
 10
58.984444
 20
8.466667
 30
0.0
  0
LWPOLYLINE
  5
1e8
100
AcDbEntity
  8
0
 62
7
100
AcDbPolyline
 90
1
 70
1
 10
50.976389
 20
17.215556
 30
0.0
  0
SPLINE
  5
1e9
100
AcDbEntity
  8
0
 62
7
100
AcDbSpline
 70
8
 71
3
 72
8
 73
4
 74
0
 40
0
 40
0
 40
0
 40
0
 40
1
 40
1
 40
1
 40
1
 10
61.736111
 20
6.032500
 30
0.0
 10
61.736111
 20
10.265833
 30
0.0
 10
61.841944
 20
12.029722
 30
0.0
 10
62.088889
 20
11.782778
 30
0.0
  0
SPLINE
  5
1ea
100
AcDbEntity
  8
0
 62
7
100
AcDbSpline
 70
8
 71
3
 72
8
 73
4
 74
0
 40
0
 40
0
 40
0
 40
0
 40
1
 40
1
 40
1
 40
1
 10
62.088889
 20
11.782778
 30
0.0
 10
62.476944
 20
11.394722
 30
0.0
 10
63.641111
 20
9.630833
 30
0.0
 10
67.627500
 20
3.245556
 30
0.0
  0
SPLINE
  5
1eb
100
AcDbEntity
  8
0
 62
7
100
AcDbSpline
 70
8
 71
3
 72
8
 73
4
 74
0
 40
0
 40
0
 40
0
 40
0
 40
1
 40
1
 40
1
 40
1
 10
67.627500
 20
3.245556
 30
0.0
 10
69.638333
 20
0.035278
 30
0.0
 10
69.708889
 20
-0.035278
 30
0.0
 10
70.908333
 20
0.070556
 30
0.0
  0
LWPOLYLINE
  5
1ec
100
AcDbEntity
  8
0
 62
7
100
AcDbPolyline
 90
5
 70
0
 10
58.984444
 20
8.466667
 30
0.0
 10
59.090278
 20
0.176389
 30
0.0
 10
60.430833
 20
0.070556
 30
0.0
 10
61.736111
 20
-0.035278
 30
0.0
 10
61.736111
 20
6.032500
 30
0.0
  0
SPLINE
  5
1ed
100
AcDbEntity
  8
0
 62
7
100
AcDbSpline
 70
8
 71
3
 72
8
 73
4
 74
0
 40
0
 40
0
 40
0
 40
0
 40
1
 40
1
 40
1
 40
1
 10
69.497222
 20
11.853333
 30
0.0
 10
69.497222
 20
8.643056
 30
0.0
 10
69.391389
 20
5.997222
 30
0.0
 10
69.250278
 20
5.997222
 30
0.0
  0
SPLINE
  5
1ee
100
AcDbEntity
  8
0
 62
7
100
AcDbSpline
 70
8
 71
3
 72
8
 73
4
 74
0
 40
0
 40
0
 40
0
 40
0
 40
1
 40
1
 40
1
 40
1
 10
69.250278
 20
5.997222
 30
0.0
 10
69.073889
 20
5.997222
 30
0.0
 10
68.509444
 20
6.738056
 30
0.0
 10
67.945000
 20
7.690556
 30
0.0
  0
SPLINE
  5
1ef
100
AcDbEntity
  8
0
 62
7
100
AcDbSpline
 70
8
 71
3
 72
8
 73
4
 74
0
 40
0
 40
0
 40
0
 40
0
 40
1
 40
1
 40
1
 40
1
 10
67.945000
 20
7.690556
 30
0.0
 10
66.639722
 20
9.736667
 30
0.0
 10
63.323611
 20
14.957778
 30
0.0
 10
62.300556
 20
16.474722
 30
0.0
  0
SPLINE
  5
1f0
100
AcDbEntity
  8
0
 62
7
100
AcDbSpline
 70
8
 71
3
 72
8
 73
4
 74
0
 40
0
 40
0
 40
0
 40
0
 40
1
 40
1
 40
1
 40
1
 10
62.300556
 20
16.474722
 30
0.0
 10
61.736111
 20
17.391944
 30
0.0
 10
61.312778
 20
17.638889
 30
0.0
 10
60.395556
 20
17.638889
 30
0.0
  0
SPLINE
  5
1f1
100
AcDbEntity
  8
0
 62
7
100
AcDbSpline
 70
8
 71
3
 72
8
 73
4
 74
0
 40
0
 40
0
 40
0
 40
0
 40
1
 40
1
 40
1
 40
1
 10
60.395556
 20
17.638889
 30
0.0
 10
59.760556
 20
17.638889
 30
0.0
 10
59.160833
 20
17.427222
 30
0.0
 10
59.055000
 20
17.180278
 30
0.0
  0
LWPOLYLINE
  5
1f2
100
AcDbEntity
  8
0
 62
7
100
AcDbPolyline
 90
7
 70
0
 10
70.908333
 20
0.070556
 30
0.0
 10
72.143056
 20
0.176389
 30
0.0
 10
72.143056
 20
8.819444
 30
0.0
 10
72.143056
 20
17.462500
 30
0.0
 10
70.837778
 20
17.568333
 30
0.0
 10
69.497222
 20
17.674167
 30
0.0
 10
69.497222
 20
11.853333
 30
0.0
  0
SPLINE
  5
1f3
100
AcDbEntity
  8
0
 62
7
100
AcDbSpline
 70
8
 71
3
 72
8
 73
4
 74
0
 40
0
 40
0
 40
0
 40
0
 40
1
 40
1
 40
1
 40
1
 10
77.858056
 20
17.427222
 30
0.0
 10
77.716944
 20
17.286111
 30
0.0
 10
77.611111
 20
13.299722
 30
0.0
 10
77.611111
 20
8.572500
 30
0.0
  0
LWPOLYLINE
  5
1f4
100
AcDbEntity
  8
0
 62
7
100
AcDbPolyline
 90
1
 70
1
 10
59.055000
 20
17.180278
 30
0.0
  0
SPLINE
  5
1f5
100
AcDbEntity
  8
0
 62
7
100
AcDbSpline
 70
8
 71
3
 72
8
 73
4
 74
0
 40
0
 40
0
 40
0
 40
0
 40
1
 40
1
 40
1
 40
1
 10
83.396667
 20
17.568333
 30
0.0
 10
80.503889
 20
17.603611
 30
0.0
 10
77.999167
 20
17.533056
 30
0.0
 10
77.858056
 20
17.427222
 30
0.0
  0
LWPOLYLINE
  5
1f6
100
AcDbEntity
  8
0
 62
7
100
AcDbPolyline
 90
23
 70
0
 10
77.611111
 20
8.572500
 30
0.0
 10
77.611111
 20
0.000000
 30
0.0
 10
83.255556
 20
0.000000
 30
0.0
 10
88.900000
 20
0.000000
 30
0.0
 10
88.900000
 20
1.234722
 30
0.0
 10
88.900000
 20
2.434167
 30
0.0
 10
84.772500
 20
2.540000
 30
0.0
 10
80.609722
 20
2.645833
 30
0.0
 10
80.503889
 20
5.221111
 30
0.0
 10
80.398056
 20
7.761111
 30
0.0
 10
84.137500
 20
7.761111
 30
0.0
 10
87.876944
 20
7.761111
 30
0.0
 10
87.771111
 20
8.925278
 30
0.0
 10
87.665278
 20
10.054167
 30
0.0
 10
84.066944
 20
10.160000
 30
0.0
 10
80.433333
 20
10.265833
 30
0.0
 10
80.433333
 20
12.523611
 30
0.0
 10
80.433333
 20
14.816667
 30
0.0
 10
84.701944
 20
14.816667
 30
0.0
 10
88.935278
 20
14.816667
 30
0.0
 10
88.829444
 20
16.157222
 30
0.0
 10
88.723611
 20
17.462500
 30
0.0
 10
83.396667
 20
17.568333
 30
0.0
  0
SPLINE
  5
1f7
100
AcDbEntity
  8
0
 62
7
100
AcDbSpline
 70
8
 71
3
 72
8
 73
4
 74
0
 40
0
 40
0
 40
0
 40
0
 40
1
 40
1
 40
1
 40
1
 10
93.309722
 20
17.215556
 30
0.0
 10
93.203889
 20
16.933333
 30
0.0
 10
93.168611
 20
13.017500
 30
0.0
 10
93.203889
 20
8.466667
 30
0.0
  0
LWPOLYLINE
  5
1f8
100
AcDbEntity
  8
0
 62
7
100
AcDbPolyline
 90
1
 70
1
 10
77.858056
 20
17.427222
 30
0.0
  0
SPLINE
  5
1f9
100
AcDbEntity
  8
0
 62
7
100
AcDbSpline
 70
8
 71
3
 72
8
 73
4
 74
0
 40
0
 40
0
 40
0
 40
0
 40
1
 40
1
 40
1
 40
1
 10
98.848333
 20
17.568333
 30
0.0
 10
94.685556
 20
17.638889
 30
0.0
 10
93.415556
 20
17.568333
 30
0.0
 10
93.309722
 20
17.215556
 30
0.0
  0
LWPOLYLINE
  5
1fa
100
AcDbEntity
  8
0
 62
7
100
AcDbPolyline
 90
23
 70
0
 10
93.203889
 20
8.466667
 30
0.0
 10
93.309722
 20
0.176389
 30
0.0
 10
98.883611
 20
0.070556
 30
0.0
 10
104.422222
 20
-0.035278
 30
0.0
 10
104.422222
 20
1.234722
 30
0.0
 10
104.422222
 20
2.469444
 30
0.0
 10
100.188889
 20
2.469444
 30
0.0
 10
95.955556
 20
2.469444
 30
0.0
 10
95.955556
 20
5.115278
 30
0.0
 10
95.955556
 20
7.761111
 30
0.0
 10
99.695000
 20
7.761111
 30
0.0
 10
103.399167
 20
7.761111
 30
0.0
 10
103.293333
 20
8.925278
 30
0.0
 10
103.187500
 20
10.054167
 30
0.0
 10
99.589167
 20
10.160000
 30
0.0
 10
95.955556
 20
10.265833
 30
0.0
 10
95.955556
 20
12.523611
 30
0.0
 10
95.955556
 20
14.816667
 30
0.0
 10
100.224167
 20
14.816667
 30
0.0
 10
104.457500
 20
14.816667
 30
0.0
 10
104.351667
 20
16.157222
 30
0.0
 10
104.245833
 20
17.462500
 30
0.0
 10
98.848333
 20
17.568333
 30
0.0
  0
SPLINE
  5
1fb
100
AcDbEntity
  8
0
 62
7
100
AcDbSpline
 70
8
 71
3
 72
8
 73
4
 74
0
 40
0
 40
0
 40
0
 40
0
 40
1
 40
1
 40
1
 40
1
 10
108.796667
 20
17.180278
 30
0.0
 10
108.726111
 20
16.933333
 30
0.0
 10
108.690833
 20
13.017500
 30
0.0
 10
108.726111
 20
8.466667
 30
0.0
  0
LWPOLYLINE
  5
1fc
100
AcDbEntity
  8
0
 62
7
100
AcDbPolyline
 90
1
 70
1
 10
93.309722
 20
17.215556
 30
0.0
  0
SPLINE
  5
1fd
100
AcDbEntity
  8
0
 62
7
100
AcDbSpline
 70
8
 71
3
 72
8
 73
4
 74
0
 40
0
 40
0
 40
0
 40
0
 40
1
 40
1
 40
1
 40
1
 10
119.838611
 20
0.000000
 30
0.0
 10
120.685278
 20
0.000000
 30
0.0
 10
121.355556
 20
0.105833
 30
0.0
 10
121.355556
 20
0.211667
 30
0.0
  0
SPLINE
  5
1fe
100
AcDbEntity
  8
0
 62
7
100
AcDbSpline
 70
8
 71
3
 72
8
 73
4
 74
0
 40
0
 40
0
 40
0
 40
0
 40
1
 40
1
 40
1
 40
1
 10
121.355556
 20
0.211667
 30
0.0
 10
121.355556
 20
0.352778
 30
0.0
 10
120.508889
 20
2.081389
 30
0.0
 10
119.450556
 20
4.092222
 30
0.0
  0
LWPOLYLINE
  5
1ff
100
AcDbEntity
  8
0
 62
7
100
AcDbPolyline
 90
11
 70
0
 10
108.726111
 20
8.466667
 30
0.0
 10
108.831944
 20
0.176389
 30
0.0
 10
110.066667
 20
0.176389
 30
0.0
 10
111.301389
 20
0.176389
 30
0.0
 10
111.407222
 20
3.810000
 30
0.0
 10
111.513056
 20
7.408333
 30
0.0
 10
113.065278
 20
7.408333
 30
0.0
 10
114.652778
 20
7.408333
 30
0.0
 10
116.487222
 20
3.704167
 30
0.0
 10
118.356944
 20
0.000000
 30
0.0
 10
119.838611
 20
0.000000
 30
0.0
  0
SPLINE
  5
200
100
AcDbEntity
  8
0
 62
7
100
AcDbSpline
 70
8
 71
3
 72
8
 73
4
 74
0
 40
0
 40
0
 40
0
 40
0
 40
1
 40
1
 40
1
 40
1
 10
118.533333
 20
8.325556
 30
0.0
 10
119.909167
 20
9.172222
 30
0.0
 10
120.650000
 20
10.618611
 30
0.0
 10
120.650000
 20
12.523611
 30
0.0
  0
SPLINE
  5
201
100
AcDbEntity
  8
0
 62
7
100
AcDbSpline
 70
8
 71
3
 72
8
 73
4
 74
0
 40
0
 40
0
 40
0
 40
0
 40
1
 40
1
 40
1
 40
1
 10
120.650000
 20
12.523611
 30
0.0
 10
120.650000
 20
14.675556
 30
0.0
 10
119.873889
 20
16.051389
 30
0.0
 10
118.180556
 20
16.933333
 30
0.0
  0
SPLINE
  5
202
100
AcDbEntity
  8
0
 62
7
100
AcDbSpline
 70
8
 71
3
 72
8
 73
4
 74
0
 40
0
 40
0
 40
0
 40
0
 40
1
 40
1
 40
1
 40
1
 10
118.180556
 20
16.933333
 30
0.0
 10
117.051667
 20
17.497778
 30
0.0
 10
116.099167
 20
17.638889
 30
0.0
 10
112.888889
 20
17.638889
 30
0.0
  0
SPLINE
  5
203
100
AcDbEntity
  8
0
 62
7
100
AcDbSpline
 70
8
 71
3
 72
8
 73
4
 74
0
 40
0
 40
0
 40
0
 40
0
 40
1
 40
1
 40
1
 40
1
 10
112.888889
 20
17.638889
 30
0.0
 10
110.066667
 20
17.638889
 30
0.0
 10
108.937778
 20
17.533056
 30
0.0
 10
108.796667
 20
17.180278
 30
0.0
  0
LWPOLYLINE
  5
204
100
AcDbEntity
  8
0
 62
7
100
AcDbPolyline
 90
3
 70
0
 10
119.450556
 20
4.092222
 30
0.0
 10
117.545556
 20
7.761111
 30
0.0
 10
118.533333
 20
8.325556
 30
0.0
  0
SPLINE
  5
205
100
AcDbEntity
  8
0
 62
7
100
AcDbSpline
 70
8
 71
3
 72
8
 73
4
 74
0
 40
0
 40
0
 40
0
 40
0
 40
1
 40
1
 40
1
 40
1
 10
116.875278
 20
14.781389
 30
0.0
 10
117.933611
 20
14.216944
 30
0.0
 10
118.180556
 20
13.793611
 30
0.0
 10
118.180556
 20
12.488333
 30
0.0
  0
SPLINE
  5
206
100
AcDbEntity
  8
0
 62
7
100
AcDbSpline
 70
8
 71
3
 72
8
 73
4
 74
0
 40
0
 40
0
 40
0
 40
0
 40
1
 40
1
 40
1
 40
1
 10
118.180556
 20
12.488333
 30
0.0
 10
118.180556
 20
10.759722
 30
0.0
 10
117.192778
 20
10.160000
 30
0.0
 10
114.123611
 20
9.948333
 30
0.0
  0
LWPOLYLINE
  5
207
100
AcDbEntity
  8
0
 62
7
100
AcDbPolyline
 90
1
 70
1
 10
108.796667
 20
17.180278
 30
0.0
  0
SPLINE
  5
208
100
AcDbEntity
  8
0
 62
7
100
AcDbSpline
 70
8
 71
3
 72
8
 73
4
 74
0
 40
0
 40
0
 40
0
 40
0
 40
1
 40
1
 40
1
 40
1
 10
113.806111
 20
15.169444
 30
0.0
 10
115.076111
 20
15.169444
 30
0.0
 10
116.451944
 20
14.993056
 30
0.0
 10
116.875278
 20
14.781389
 30
0.0
  0
LWPOLYLINE
  5
209
100
AcDbEntity
  8
0
 62
7
100
AcDbPolyline
 90
5
 70
0
 10
114.123611
 20
9.948333
 30
0.0
 10
111.477778
 20
9.771944
 30
0.0
 10
111.477778
 20
12.488333
 30
0.0
 10
111.477778
 20
15.169444
 30
0.0
 10
113.806111
 20
15.169444
 30
0.0
  0
LWPOLYLINE
  5
20a
100
AcDbEntity
  8
0
 62
7
100
AcDbPolyline
 90
1
 70
1
 10
116.875278
 20
14.781389
 30
0.0
  0
LWPOLYLINE
  5
20b
100
AcDbEntity
  8
0
 62
7
100
AcDbPolyline
 90
25
 70
1
 10
125.588889
 20
8.819444
 30
0.0
 10
125.588889
 20
0.000000
 30
0.0
 10
131.233333
 20
0.000000
 30
0.0
 10
136.877778
 20
0.000000
 30
0.0
 10
136.877778
 20
1.234722
 30
0.0
 10
136.877778
 20
2.434167
 30
0.0
 10
132.573889
 20
2.540000
 30
0.0
 10
128.234722
 20
2.645833
 30
0.0
 10
128.234722
 20
5.115278
 30
0.0
 10
128.234722
 20
7.584722
 30
0.0
 10
131.868333
 20
7.690556
 30
0.0
 10
135.501944
 20
7.796389
 30
0.0
 10
135.396111
 20
8.925278
 30
0.0
 10
135.290278
 20
10.054167
 30
0.0
 10
131.691944
 20
10.160000
 30
0.0
 10
128.058333
 20
10.265833
 30
0.0
 10
128.058333
 20
12.523611
 30
0.0
 10
128.058333
 20
14.781389
 30
0.0
 10
132.397500
 20
14.887222
 30
0.0
 10
136.701389
 20
14.993056
 30
0.0
 10
136.701389
 20
16.227778
 30
0.0
 10
136.701389
 20
17.462500
 30
0.0
 10
131.162778
 20
17.568333
 30
0.0
 10
125.588889
 20
17.674167
 30
0.0
 10
125.588889
 20
8.819444
 30
0.0
  0
SPLINE
  5
20c
100
AcDbEntity
  8
0
 62
7
100
AcDbSpline
 70
8
 71
3
 72
8
 73
4
 74
0
 40
0
 40
0
 40
0
 40
0
 40
1
 40
1
 40
1
 40
1
 10
144.921111
 20
0.070556
 30
0.0
 10
151.271111
 20
0.282222
 30
0.0
 10
152.929167
 20
1.693333
 30
0.0
 10
153.317222
 20
7.231944
 30
0.0
  0
SPLINE
  5
20d
100
AcDbEntity
  8
0
 62
7
100
AcDbSpline
 70
8
 71
3
 72
8
 73
4
 74
0
 40
0
 40
0
 40
0
 40
0
 40
1
 40
1
 40
1
 40
1
 10
153.317222
 20
7.231944
 30
0.0
 10
153.599444
 20
11.218333
 30
0.0
 10
153.070278
 20
13.970000
 30
0.0
 10
151.729722
 20
15.451667
 30
0.0
  0
SPLINE
  5
20e
100
AcDbEntity
  8
0
 62
7
100
AcDbSpline
 70
8
 71
3
 72
8
 73
4
 74
0
 40
0
 40
0
 40
0
 40
0
 40
1
 40
1
 40
1
 40
1
 10
151.729722
 20
15.451667
 30
0.0
 10
150.212778
 20
17.180278
 30
0.0
 10
148.660556
 20
17.638889
 30
0.0
 10
144.638889
 20
17.638889
 30
0.0
  0
LWPOLYLINE
  5
20f
100
AcDbEntity
  8
0
 62
7
100
AcDbPolyline
 90
3
 70
0
 10
141.111111
 20
8.784167
 30
0.0
 10
141.111111
 20
-0.070556
 30
0.0
 10
144.921111
 20
0.070556
 30
0.0
  0
SPLINE
  5
210
100
AcDbEntity
  8
0
 62
7
100
AcDbSpline
 70
8
 71
3
 72
8
 73
4
 74
0
 40
0
 40
0
 40
0
 40
0
 40
1
 40
1
 40
1
 40
1
 10
148.942778
 20
14.428611
 30
0.0
 10
150.106944
 20
13.828889
 30
0.0
 10
150.636111
 20
11.923889
 30
0.0
 10
150.636111
 20
8.572500
 30
0.0
  0
SPLINE
  5
211
100
AcDbEntity
  8
0
 62
7
100
AcDbSpline
 70
8
 71
3
 72
8
 73
4
 74
0
 40
0
 40
0
 40
0
 40
0
 40
1
 40
1
 40
1
 40
1
 10
150.636111
 20
8.572500
 30
0.0
 10
150.636111
 20
6.103056
 30
0.0
 10
150.495000
 20
5.221111
 30
0.0
 10
149.930556
 20
4.339167
 30
0.0
  0
SPLINE
  5
212
100
AcDbEntity
  8
0
 62
7
100
AcDbSpline
 70
8
 71
3
 72
8
 73
4
 74
0
 40
0
 40
0
 40
0
 40
0
 40
1
 40
1
 40
1
 40
1
 10
149.930556
 20
4.339167
 30
0.0
 10
149.154444
 20
3.033889
 30
0.0
 10
147.355278
 20
2.363611
 30
0.0
 10
145.168056
 20
2.540000
 30
0.0
  0
LWPOLYLINE
  5
213
100
AcDbEntity
  8
0
 62
7
100
AcDbPolyline
 90
4
 70
0
 10
144.638889
 20
17.638889
 30
0.0
 10
141.111111
 20
17.638889
 30
0.0
 10
141.111111
 20
8.784167
 30
0.0
 10
141.111111
 20
8.784167
 30
0.0
  0
SPLINE
  5
214
100
AcDbEntity
  8
0
 62
7
100
AcDbSpline
 70
8
 71
3
 72
8
 73
4
 74
0
 40
0
 40
0
 40
0
 40
0
 40
1
 40
1
 40
1
 40
1
 10
145.873611
 20
14.816667
 30
0.0
 10
147.178889
 20
14.816667
 30
0.0
 10
148.519444
 20
14.640278
 30
0.0
 10
148.942778
 20
14.428611
 30
0.0
  0
LWPOLYLINE
  5
215
100
AcDbEntity
  8
0
 62
7
100
AcDbPolyline
 90
5
 70
0
 10
145.168056
 20
2.540000
 30
0.0
 10
143.756944
 20
2.645833
 30
0.0
 10
143.651111
 20
8.748889
 30
0.0
 10
143.580556
 20
14.816667
 30
0.0
 10
145.873611
 20
14.816667
 30
0.0
  0
SPLINE
  5
216
100
AcDbEntity
  8
0
 62
7
100
AcDbSpline
 70
8
 71
3
 72
8
 73
4
 74
0
 40
0
 40
0
 40
0
 40
0
 40
1
 40
1
 40
1
 40
1
 10
165.981944
 20
17.215556
 30
0.0
 10
165.876111
 20
16.933333
 30
0.0
 10
165.840833
 20
13.017500
 30
0.0
 10
165.876111
 20
8.466667
 30
0.0
  0
LWPOLYLINE
  5
217
100
AcDbEntity
  8
0
 62
7
100
AcDbPolyline
 90
1
 70
1
 10
148.942778
 20
14.428611
 30
0.0
  0
SPLINE
  5
218
100
AcDbEntity
  8
0
 62
7
100
AcDbSpline
 70
8
 71
3
 72
8
 73
4
 74
0
 40
0
 40
0
 40
0
 40
0
 40
1
 40
1
 40
1
 40
1
 10
171.696944
 20
17.568333
 30
0.0
 10
167.393056
 20
17.638889
 30
0.0
 10
166.087778
 20
17.568333
 30
0.0
 10
165.981944
 20
17.215556
 30
0.0
  0
LWPOLYLINE
  5
219
100
AcDbEntity
  8
0
 62
7
100
AcDbPolyline
 90
19
 70
0
 10
165.876111
 20
8.466667
 30
0.0
 10
165.981944
 20
0.176389
 30
0.0
 10
167.322500
 20
0.070556
 30
0.0
 10
168.627778
 20
-0.035278
 30
0.0
 10
168.627778
 20
3.668889
 30
0.0
 10
168.627778
 20
7.408333
 30
0.0
 10
172.331944
 20
7.408333
 30
0.0
 10
176.036111
 20
7.408333
 30
0.0
 10
176.036111
 20
8.643056
 30
0.0
 10
176.036111
 20
9.877778
 30
0.0
 10
172.331944
 20
9.877778
 30
0.0
 10
168.627778
 20
9.877778
 30
0.0
 10
168.627778
 20
12.347222
 30
0.0
 10
168.627778
 20
14.781389
 30
0.0
 10
172.966944
 20
14.887222
 30
0.0
 10
177.270833
 20
14.993056
 30
0.0
 10
177.270833
 20
16.227778
 30
0.0
 10
177.270833
 20
17.462500
 30
0.0
 10
171.696944
 20
17.568333
 30
0.0
  0
SPLINE
  5
21a
100
AcDbEntity
  8
0
 62
7
100
AcDbSpline
 70
8
 71
3
 72
8
 73
4
 74
0
 40
0
 40
0
 40
0
 40
0
 40
1
 40
1
 40
1
 40
1
 10
183.726667
 20
16.933333
 30
0.0
 10
183.021111
 20
16.545278
 30
0.0
 10
182.068611
 20
15.733889
 30
0.0
 10
181.610000
 20
15.098889
 30
0.0
  0
SPLINE
  5
21b
100
AcDbEntity
  8
0
 62
7
100
AcDbSpline
 70
8
 71
3
 72
8
 73
4
 74
0
 40
0
 40
0
 40
0
 40
0
 40
1
 40
1
 40
1
 40
1
 10
181.610000
 20
15.098889
 30
0.0
 10
180.833889
 20
14.005278
 30
0.0
 10
180.798611
 20
13.617222
 30
0.0
 10
180.798611
 20
8.819444
 30
0.0
  0
SPLINE
  5
21c
100
AcDbEntity
  8
0
 62
7
100
AcDbSpline
 70
8
 71
3
 72
8
 73
4
 74
0
 40
0
 40
0
 40
0
 40
0
 40
1
 40
1
 40
1
 40
1
 10
180.798611
 20
8.819444
 30
0.0
 10
180.798611
 20
4.092222
 30
0.0
 10
180.869167
 20
3.633611
 30
0.0
 10
181.610000
 20
2.575278
 30
0.0
  0
SPLINE
  5
21d
100
AcDbEntity
  8
0
 62
7
100
AcDbSpline
 70
8
 71
3
 72
8
 73
4
 74
0
 40
0
 40
0
 40
0
 40
0
 40
1
 40
1
 40
1
 40
1
 10
181.610000
 20
2.575278
 30
0.0
 10
182.597778
 20
1.199444
 30
0.0
 10
184.996667
 20
0.000000
 30
0.0
 10
186.866389
 20
0.000000
 30
0.0
  0
SPLINE
  5
21e
100
AcDbEntity
  8
0
 62
7
100
AcDbSpline
 70
8
 71
3
 72
8
 73
4
 74
0
 40
0
 40
0
 40
0
 40
0
 40
1
 40
1
 40
1
 40
1
 10
186.866389
 20
0.000000
 30
0.0
 10
188.983056
 20
0.000000
 30
0.0
 10
191.170278
 20
1.305278
 30
0.0
 10
192.158056
 20
3.175000
 30
0.0
  0
SPLINE
  5
21f
100
AcDbEntity
  8
0
 62
7
100
AcDbSpline
 70
8
 71
3
 72
8
 73
4
 74
0
 40
0
 40
0
 40
0
 40
0
 40
1
 40
1
 40
1
 40
1
 10
192.158056
 20
3.175000
 30
0.0
 10
192.863611
 20
4.515556
 30
0.0
 10
192.969444
 20
5.185833
 30
0.0
 10
192.969444
 20
8.890000
 30
0.0
  0
SPLINE
  5
220
100
AcDbEntity
  8
0
 62
7
100
AcDbSpline
 70
8
 71
3
 72
8
 73
4
 74
0
 40
0
 40
0
 40
0
 40
0
 40
1
 40
1
 40
1
 40
1
 10
192.969444
 20
8.890000
 30
0.0
 10
192.969444
 20
11.324167
 30
0.0
 10
192.793056
 20
13.440833
 30
0.0
 10
192.581389
 20
13.864167
 30
0.0
  0
SPLINE
  5
221
100
AcDbEntity
  8
0
 62
7
100
AcDbSpline
 70
8
 71
3
 72
8
 73
4
 74
0
 40
0
 40
0
 40
0
 40
0
 40
1
 40
1
 40
1
 40
1
 10
192.581389
 20
13.864167
 30
0.0
 10
191.981667
 20
14.993056
 30
0.0
 10
190.464722
 20
16.580556
 30
0.0
 10
189.371111
 20
17.145000
 30
0.0
  0
SPLINE
  5
222
100
AcDbEntity
  8
0
 62
7
100
AcDbSpline
 70
8
 71
3
 72
8
 73
4
 74
0
 40
0
 40
0
 40
0
 40
0
 40
1
 40
1
 40
1
 40
1
 10
189.371111
 20
17.145000
 30
0.0
 10
188.030556
 20
17.850556
 30
0.0
 10
185.278889
 20
17.744722
 30
0.0
 10
183.726667
 20
16.933333
 30
0.0
  0
LWPOLYLINE
  5
223
100
AcDbEntity
  8
0
 62
7
100
AcDbPolyline
 90
1
 70
1
 10
165.981944
 20
17.215556
 30
0.0
  0
SPLINE
  5
224
100
AcDbEntity
  8
0
 62
7
100
AcDbSpline
 70
8
 71
3
 72
8
 73
4
 74
0
 40
0
 40
0
 40
0
 40
0
 40
1
 40
1
 40
1
 40
1
 10
189.124167
 20
13.793611
 30
0.0
 10
190.111944
 20
12.770556
 30
0.0
 10
190.147222
 20
12.700000
 30
0.0
 10
190.147222
 20
8.925278
 30
0.0
  0
SPLINE
  5
225
100
AcDbEntity
  8
0
 62
7
100
AcDbSpline
 70
8
 71
3
 72
8
 73
4
 74
0
 40
0
 40
0
 40
0
 40
0
 40
1
 40
1
 40
1
 40
1
 10
190.147222
 20
8.925278
 30
0.0
 10
190.147222
 20
4.727222
 30
0.0
 10
189.865000
 20
3.951111
 30
0.0
 10
187.995278
 20
2.998611
 30
0.0
  0
SPLINE
  5
226
100
AcDbEntity
  8
0
 62
7
100
AcDbSpline
 70
8
 71
3
 72
8
 73
4
 74
0
 40
0
 40
0
 40
0
 40
0
 40
1
 40
1
 40
1
 40
1
 10
187.995278
 20
2.998611
 30
0.0
 10
186.760556
 20
2.328333
 30
0.0
 10
185.525833
 20
2.610556
 30
0.0
 10
184.361667
 20
3.739444
 30
0.0
  0
SPLINE
  5
227
100
AcDbEntity
  8
0
 62
7
100
AcDbSpline
 70
8
 71
3
 72
8
 73
4
 74
0
 40
0
 40
0
 40
0
 40
0
 40
1
 40
1
 40
1
 40
1
 10
184.361667
 20
3.739444
 30
0.0
 10
182.703611
 20
5.432778
 30
0.0
 10
182.703611
 20
12.347222
 30
0.0
 10
184.361667
 20
14.005278
 30
0.0
  0
SPLINE
  5
228
100
AcDbEntity
  8
0
 62
7
100
AcDbSpline
 70
8
 71
3
 72
8
 73
4
 74
0
 40
0
 40
0
 40
0
 40
0
 40
1
 40
1
 40
1
 40
1
 10
184.361667
 20
14.005278
 30
0.0
 10
185.596389
 20
15.240000
 30
0.0
 10
187.748333
 20
15.134167
 30
0.0
 10
189.124167
 20
13.793611
 30
0.0
  0
LWPOLYLINE
  5
229
100
AcDbEntity
  8
0
 62
7
100
AcDbPolyline
 90
1
 70
1
 10
183.726667
 20
16.933333
 30
0.0
  0
LWPOLYLINE
  5
22a
100
AcDbEntity
  8
0
 62
7
100
AcDbPolyline
 90
1
 70
1
 10
189.124167
 20
13.793611
 30
0.0
  0
SPLINE
  5
22b
100
AcDbEntity
  8
0
 62
7
100
AcDbSpline
 70
8
 71
3
 72
8
 73
4
 74
0
 40
0
 40
0
 40
0
 40
0
 40
1
 40
1
 40
1
 40
1
 10
209.091389
 20
0.000000
 30
0.0
 10
209.938056
 20
0.000000
 30
0.0
 10
210.608333
 20
0.070556
 30
0.0
 10
210.608333
 20
0.176389
 30
0.0
  0
SPLINE
  5
22c
100
AcDbEntity
  8
0
 62
7
100
AcDbSpline
 70
8
 71
3
 72
8
 73
4
 74
0
 40
0
 40
0
 40
0
 40
0
 40
1
 40
1
 40
1
 40
1
 10
210.608333
 20
0.176389
 30
0.0
 10
210.608333
 20
0.246944
 30
0.0
 10
209.761667
 20
1.940278
 30
0.0
 10
208.703333
 20
3.915833
 30
0.0
  0
LWPOLYLINE
  5
22d
100
AcDbEntity
  8
0
 62
7
100
AcDbPolyline
 90
11
 70
0
 10
197.908333
 20
8.819444
 30
0.0
 10
197.908333
 20
0.000000
 30
0.0
 10
199.319444
 20
0.000000
 30
0.0
 10
200.730556
 20
0.000000
 30
0.0
 10
200.730556
 20
3.704167
 30
0.0
 10
200.730556
 20
7.408333
 30
0.0
 10
202.318056
 20
7.408333
 30
0.0
 10
203.905556
 20
7.408333
 30
0.0
 10
205.740000
 20
3.704167
 30
0.0
 10
207.539167
 20
0.000000
 30
0.0
 10
209.091389
 20
0.000000
 30
0.0
  0
SPLINE
  5
22e
100
AcDbEntity
  8
0
 62
7
100
AcDbSpline
 70
8
 71
3
 72
8
 73
4
 74
0
 40
0
 40
0
 40
0
 40
0
 40
1
 40
1
 40
1
 40
1
 10
208.244722
 20
8.854722
 30
0.0
 10
209.691111
 20
10.124722
 30
0.0
 10
209.726389
 20
10.195278
 30
0.0
 10
209.726389
 20
12.453056
 30
0.0
  0
SPLINE
  5
22f
100
AcDbEntity
  8
0
 62
7
100
AcDbSpline
 70
8
 71
3
 72
8
 73
4
 74
0
 40
0
 40
0
 40
0
 40
0
 40
1
 40
1
 40
1
 40
1
 10
209.726389
 20
12.453056
 30
0.0
 10
209.726389
 20
14.428611
 30
0.0
 10
209.585278
 20
14.887222
 30
0.0
 10
208.844444
 20
15.698611
 30
0.0
  0
SPLINE
  5
230
100
AcDbEntity
  8
0
 62
7
100
AcDbSpline
 70
8
 71
3
 72
8
 73
4
 74
0
 40
0
 40
0
 40
0
 40
0
 40
1
 40
1
 40
1
 40
1
 10
208.844444
 20
15.698611
 30
0.0
 10
207.398056
 20
17.286111
 30
0.0
 10
206.057500
 20
17.638889
 30
0.0
 10
201.788889
 20
17.638889
 30
0.0
  0
LWPOLYLINE
  5
231
100
AcDbEntity
  8
0
 62
7
100
AcDbPolyline
 90
3
 70
0
 10
208.703333
 20
3.915833
 30
0.0
 10
206.763056
 20
7.549444
 30
0.0
 10
208.244722
 20
8.854722
 30
0.0
  0
SPLINE
  5
232
100
AcDbEntity
  8
0
 62
7
100
AcDbSpline
 70
8
 71
3
 72
8
 73
4
 74
0
 40
0
 40
0
 40
0
 40
0
 40
1
 40
1
 40
1
 40
1
 10
206.128056
 20
14.781389
 30
0.0
 10
207.151111
 20
14.216944
 30
0.0
 10
207.433333
 20
13.793611
 30
0.0
 10
207.433333
 20
12.664722
 30
0.0
  0
SPLINE
  5
233
100
AcDbEntity
  8
0
 62
7
100
AcDbSpline
 70
8
 71
3
 72
8
 73
4
 74
0
 40
0
 40
0
 40
0
 40
0
 40
1
 40
1
 40
1
 40
1
 10
207.433333
 20
12.664722
 30
0.0
 10
207.433333
 20
10.830278
 30
0.0
 10
206.445556
 20
10.160000
 30
0.0
 10
203.446944
 20
9.948333
 30
0.0
  0
LWPOLYLINE
  5
234
100
AcDbEntity
  8
0
 62
7
100
AcDbPolyline
 90
4
 70
0
 10
201.788889
 20
17.638889
 30
0.0
 10
197.908333
 20
17.638889
 30
0.0
 10
197.908333
 20
8.819444
 30
0.0
 10
197.908333
 20
8.819444
 30
0.0
  0
SPLINE
  5
235
100
AcDbEntity
  8
0
 62
7
100
AcDbSpline
 70
8
 71
3
 72
8
 73
4
 74
0
 40
0
 40
0
 40
0
 40
0
 40
1
 40
1
 40
1
 40
1
 10
203.058889
 20
15.169444
 30
0.0
 10
204.328889
 20
15.169444
 30
0.0
 10
205.704722
 20
14.993056
 30
0.0
 10
206.128056
 20
14.781389
 30
0.0
  0
LWPOLYLINE
  5
236
100
AcDbEntity
  8
0
 62
7
100
AcDbPolyline
 90
5
 70
0
 10
203.446944
 20
9.948333
 30
0.0
 10
200.730556
 20
9.771944
 30
0.0
 10
200.730556
 20
12.488333
 30
0.0
 10
200.730556
 20
15.169444
 30
0.0
 10
203.058889
 20
15.169444
 30
0.0
  0
SPLINE
  5
237
100
AcDbEntity
  8
0
 62
7
100
AcDbSpline
 70
8
 71
3
 72
8
 73
4
 74
0
 40
0
 40
0
 40
0
 40
0
 40
1
 40
1
 40
1
 40
1
 10
224.437222
 20
16.933333
 30
0.0
 10
222.108889
 20
15.522222
 30
0.0
 10
221.297500
 20
12.841111
 30
0.0
 10
222.461667
 20
10.406944
 30
0.0
  0
SPLINE
  5
238
100
AcDbEntity
  8
0
 62
7
100
AcDbSpline
 70
8
 71
3
 72
8
 73
4
 74
0
 40
0
 40
0
 40
0
 40
0
 40
1
 40
1
 40
1
 40
1
 10
222.461667
 20
10.406944
 30
0.0
 10
223.237778
 20
8.748889
 30
0.0
 10
224.366667
 20
8.113889
 30
0.0
 10
227.435833
 20
7.584722
 30
0.0
  0
SPLINE
  5
239
100
AcDbEntity
  8
0
 62
7
100
AcDbSpline
 70
8
 71
3
 72
8
 73
4
 74
0
 40
0
 40
0
 40
0
 40
0
 40
1
 40
1
 40
1
 40
1
 10
227.435833
 20
7.584722
 30
0.0
 10
230.152222
 20
7.126111
 30
0.0
 10
231.034167
 20
6.526389
 30
0.0
 10
231.069444
 20
5.080000
 30
0.0
  0
SPLINE
  5
23a
100
AcDbEntity
  8
0
 62
7
100
AcDbSpline
 70
8
 71
3
 72
8
 73
4
 74
0
 40
0
 40
0
 40
0
 40
0
 40
1
 40
1
 40
1
 40
1
 10
231.069444
 20
5.080000
 30
0.0
 10
231.104722
 20
3.175000
 30
0.0
 10
228.564722
 20
2.151944
 30
0.0
 10
225.848333
 20
2.928056
 30
0.0
  0
SPLINE
  5
23b
100
AcDbEntity
  8
0
 62
7
100
AcDbSpline
 70
8
 71
3
 72
8
 73
4
 74
0
 40
0
 40
0
 40
0
 40
0
 40
1
 40
1
 40
1
 40
1
 10
225.848333
 20
2.928056
 30
0.0
 10
224.895833
 20
3.245556
 30
0.0
 10
223.766944
 20
3.668889
 30
0.0
 10
223.378889
 20
3.915833
 30
0.0
  0
SPLINE
  5
23c
100
AcDbEntity
  8
0
 62
7
100
AcDbSpline
 70
8
 71
3
 72
8
 73
4
 74
0
 40
0
 40
0
 40
0
 40
0
 40
1
 40
1
 40
1
 40
1
 10
223.378889
 20
3.915833
 30
0.0
 10
222.743889
 20
4.339167
 30
0.0
 10
222.532222
 20
4.268611
 30
0.0
 10
221.897222
 20
3.527778
 30
0.0
  0
SPLINE
  5
23d
100
AcDbEntity
  8
0
 62
7
100
AcDbSpline
 70
8
 71
3
 72
8
 73
4
 74
0
 40
0
 40
0
 40
0
 40
0
 40
1
 40
1
 40
1
 40
1
 10
221.897222
 20
3.527778
 30
0.0
 10
221.509167
 20
3.069167
 30
0.0
 10
221.226944
 20
2.540000
 30
0.0
 10
221.297500
 20
2.328333
 30
0.0
  0
SPLINE
  5
23e
100
AcDbEntity
  8
0
 62
7
100
AcDbSpline
 70
8
 71
3
 72
8
 73
4
 74
0
 40
0
 40
0
 40
0
 40
0
 40
1
 40
1
 40
1
 40
1
 10
221.297500
 20
2.328333
 30
0.0
 10
221.579722
 20
1.481667
 30
0.0
 10
224.472500
 20
0.246944
 30
0.0
 10
226.695000
 20
0.070556
 30
0.0
  0
SPLINE
  5
23f
100
AcDbEntity
  8
0
 62
7
100
AcDbSpline
 70
8
 71
3
 72
8
 73
4
 74
0
 40
0
 40
0
 40
0
 40
0
 40
1
 40
1
 40
1
 40
1
 10
226.695000
 20
0.070556
 30
0.0
 10
232.057222
 20
-0.352778
 30
0.0
 10
235.196944
 20
3.104444
 30
0.0
 10
233.221389
 20
7.196667
 30
0.0
  0
SPLINE
  5
240
100
AcDbEntity
  8
0
 62
7
100
AcDbSpline
 70
8
 71
3
 72
8
 73
4
 74
0
 40
0
 40
0
 40
0
 40
0
 40
1
 40
1
 40
1
 40
1
 10
233.221389
 20
7.196667
 30
0.0
 10
232.339444
 20
8.960556
 30
0.0
 10
230.293333
 20
10.230556
 30
0.0
 10
228.317778
 20
10.230556
 30
0.0
  0
SPLINE
  5
241
100
AcDbEntity
  8
0
 62
7
100
AcDbSpline
 70
8
 71
3
 72
8
 73
4
 74
0
 40
0
 40
0
 40
0
 40
0
 40
1
 40
1
 40
1
 40
1
 10
228.317778
 20
10.230556
 30
0.0
 10
227.047778
 20
10.230556
 30
0.0
 10
225.354444
 20
10.795000
 30
0.0
 10
225.001667
 20
11.394722
 30
0.0
  0
SPLINE
  5
242
100
AcDbEntity
  8
0
 62
7
100
AcDbSpline
 70
8
 71
3
 72
8
 73
4
 74
0
 40
0
 40
0
 40
0
 40
0
 40
1
 40
1
 40
1
 40
1
 10
225.001667
 20
11.394722
 30
0.0
 10
224.472500
 20
12.241389
 30
0.0
 10
224.719444
 20
13.723056
 30
0.0
 10
225.495556
 20
14.252222
 30
0.0
  0
SPLINE
  5
243
100
AcDbEntity
  8
0
 62
7
100
AcDbSpline
 70
8
 71
3
 72
8
 73
4
 74
0
 40
0
 40
0
 40
0
 40
0
 40
1
 40
1
 40
1
 40
1
 10
225.495556
 20
14.252222
 30
0.0
 10
226.483333
 20
14.957778
 30
0.0
 10
229.199722
 20
14.957778
 30
0.0
 10
230.363889
 20
14.287500
 30
0.0
  0
SPLINE
  5
244
100
AcDbEntity
  8
0
 62
7
100
AcDbSpline
 70
8
 71
3
 72
8
 73
4
 74
0
 40
0
 40
0
 40
0
 40
0
 40
1
 40
1
 40
1
 40
1
 10
230.363889
 20
14.287500
 30
0.0
 10
230.857778
 20
14.005278
 30
0.0
 10
231.422222
 20
13.793611
 30
0.0
 10
231.598611
 20
13.758333
 30
0.0
  0
SPLINE
  5
245
100
AcDbEntity
  8
0
 62
7
100
AcDbSpline
 70
8
 71
3
 72
8
 73
4
 74
0
 40
0
 40
0
 40
0
 40
0
 40
1
 40
1
 40
1
 40
1
 10
231.598611
 20
13.758333
 30
0.0
 10
231.951389
 20
13.758333
 30
0.0
 10
233.186111
 20
15.522222
 30
0.0
 10
233.186111
 20
15.980833
 30
0.0
  0
SPLINE
  5
246
100
AcDbEntity
  8
0
 62
7
100
AcDbSpline
 70
8
 71
3
 72
8
 73
4
 74
0
 40
0
 40
0
 40
0
 40
0
 40
1
 40
1
 40
1
 40
1
 10
233.186111
 20
15.980833
 30
0.0
 10
233.186111
 20
16.086667
 30
0.0
 10
232.304167
 20
16.510000
 30
0.0
 10
231.245833
 20
16.898056
 30
0.0
  0
SPLINE
  5
247
100
AcDbEntity
  8
0
 62
7
100
AcDbSpline
 70
8
 71
3
 72
8
 73
4
 74
0
 40
0
 40
0
 40
0
 40
0
 40
1
 40
1
 40
1
 40
1
 10
231.245833
 20
16.898056
 30
0.0
 10
228.705833
 20
17.850556
 30
0.0
 10
225.989444
 20
17.850556
 30
0.0
 10
224.437222
 20
16.933333
 30
0.0
  0
LWPOLYLINE
  5
248
100
AcDbEntity
  8
0
 62
7
100
AcDbPolyline
 90
1
 70
1
 10
206.128056
 20
14.781389
 30
0.0
  0
SPLINE
  5
249
100
AcDbEntity
  8
0
 62
7
100
AcDbSpline
 70
8
 71
3
 72
8
 73
4
 74
0
 40
0
 40
0
 40
0
 40
0
 40
1
 40
1
 40
1
 40
1
 10
238.125000
 20
11.041944
 30
0.0
 10
238.125000
 20
4.833056
 30
0.0
 10
238.195556
 20
4.339167
 30
0.0
 10
238.936389
 20
2.998611
 30
0.0
  0
SPLINE
  5
24a
100
AcDbEntity
  8
0
 62
7
100
AcDbSpline
 70
8
 71
3
 72
8
 73
4
 74
0
 40
0
 40
0
 40
0
 40
0
 40
1
 40
1
 40
1
 40
1
 10
238.936389
 20
2.998611
 30
0.0
 10
241.088333
 20
-0.776111
 30
0.0
 10
246.909167
 20
-1.023056
 30
0.0
 10
249.555000
 20
2.575278
 30
0.0
  0
SPLINE
  5
24b
100
AcDbEntity
  8
0
 62
7
100
AcDbSpline
 70
8
 71
3
 72
8
 73
4
 74
0
 40
0
 40
0
 40
0
 40
0
 40
1
 40
1
 40
1
 40
1
 10
249.555000
 20
2.575278
 30
0.0
 10
250.225278
 20
3.492500
 30
0.0
 10
250.295833
 20
4.127500
 30
0.0
 10
250.401667
 20
10.618611
 30
0.0
  0
LWPOLYLINE
  5
24c
100
AcDbEntity
  8
0
 62
7
100
AcDbPolyline
 90
1
 70
1
 10
224.437222
 20
16.933333
 30
0.0
  0
SPLINE
  5
24d
100
AcDbEntity
  8
0
 62
7
100
AcDbSpline
 70
8
 71
3
 72
8
 73
4
 74
0
 40
0
 40
0
 40
0
 40
0
 40
1
 40
1
 40
1
 40
1
 10
247.932222
 20
11.359444
 30
0.0
 10
247.826389
 20
4.303889
 30
0.0
 10
247.579444
 20
3.563056
 30
0.0
 10
245.392222
 20
2.822222
 30
0.0
  0
SPLINE
  5
24e
100
AcDbEntity
  8
0
 62
7
100
AcDbSpline
 70
8
 71
3
 72
8
 73
4
 74
0
 40
0
 40
0
 40
0
 40
0
 40
1
 40
1
 40
1
 40
1
 10
245.392222
 20
2.822222
 30
0.0
 10
244.369167
 20
2.504722
 30
0.0
 10
243.945833
 20
2.540000
 30
0.0
 10
242.922778
 20
2.998611
 30
0.0
  0
SPLINE
  5
24f
100
AcDbEntity
  8
0
 62
7
100
AcDbSpline
 70
8
 71
3
 72
8
 73
4
 74
0
 40
0
 40
0
 40
0
 40
0
 40
1
 40
1
 40
1
 40
1
 10
242.922778
 20
2.998611
 30
0.0
 10
240.876667
 20
3.951111
 30
0.0
 10
240.594444
 20
5.080000
 30
0.0
 10
240.594444
 20
11.782778
 30
0.0
  0
LWPOLYLINE
  5
250
100
AcDbEntity
  8
0
 62
7
100
AcDbPolyline
 90
5
 70
0
 10
250.401667
 20
10.618611
 30
0.0
 10
250.507500
 20
17.638889
 30
0.0
 10
249.272778
 20
17.638889
 30
0.0
 10
248.073333
 20
17.638889
 30
0.0
 10
247.932222
 20
11.359444
 30
0.0
  0
SPLINE
  5
251
100
AcDbEntity
  8
0
 62
7
100
AcDbSpline
 70
8
 71
3
 72
8
 73
4
 74
0
 40
0
 40
0
 40
0
 40
0
 40
1
 40
1
 40
1
 40
1
 10
258.762500
 20
17.145000
 30
0.0
 10
256.010833
 20
15.875000
 30
0.0
 10
255.093611
 20
13.793611
 30
0.0
 10
255.093611
 20
8.643056
 30
0.0
  0
SPLINE
  5
252
100
AcDbEntity
  8
0
 62
7
100
AcDbSpline
 70
8
 71
3
 72
8
 73
4
 74
0
 40
0
 40
0
 40
0
 40
0
 40
1
 40
1
 40
1
 40
1
 10
255.093611
 20
8.643056
 30
0.0
 10
255.058333
 20
4.974167
 30
0.0
 10
255.481667
 20
3.351389
 30
0.0
 10
256.716389
 20
2.046111
 30
0.0
  0
SPLINE
  5
253
100
AcDbEntity
  8
0
 62
7
100
AcDbSpline
 70
8
 71
3
 72
8
 73
4
 74
0
 40
0
 40
0
 40
0
 40
0
 40
1
 40
1
 40
1
 40
1
 10
256.716389
 20
2.046111
 30
0.0
 10
259.503333
 20
-0.952500
 30
0.0
 10
264.759722
 20
-0.564444
 30
0.0
 10
266.629444
 20
2.786944
 30
0.0
  0
SPLINE
  5
254
100
AcDbEntity
  8
0
 62
7
100
AcDbSpline
 70
8
 71
3
 72
8
 73
4
 74
0
 40
0
 40
0
 40
0
 40
0
 40
1
 40
1
 40
1
 40
1
 10
266.629444
 20
2.786944
 30
0.0
 10
267.687778
 20
4.656667
 30
0.0
 10
267.617222
 20
4.938889
 30
0.0
 10
266.065000
 20
4.938889
 30
0.0
  0
SPLINE
  5
255
100
AcDbEntity
  8
0
 62
7
100
AcDbSpline
 70
8
 71
3
 72
8
 73
4
 74
0
 40
0
 40
0
 40
0
 40
0
 40
1
 40
1
 40
1
 40
1
 10
266.065000
 20
4.938889
 30
0.0
 10
265.077222
 20
4.938889
 30
0.0
 10
264.512778
 20
4.691944
 30
0.0
 10
263.807222
 20
3.915833
 30
0.0
  0
SPLINE
  5
256
100
AcDbEntity
  8
0
 62
7
100
AcDbSpline
 70
8
 71
3
 72
8
 73
4
 74
0
 40
0
 40
0
 40
0
 40
0
 40
1
 40
1
 40
1
 40
1
 10
263.807222
 20
3.915833
 30
0.0
 10
262.537222
 20
2.610556
 30
0.0
 10
261.337778
 20
2.293056
 30
0.0
 10
259.997222
 20
2.998611
 30
0.0
  0
SPLINE
  5
257
100
AcDbEntity
  8
0
 62
7
100
AcDbSpline
 70
8
 71
3
 72
8
 73
4
 74
0
 40
0
 40
0
 40
0
 40
0
 40
1
 40
1
 40
1
 40
1
 10
259.997222
 20
2.998611
 30
0.0
 10
258.198056
 20
3.915833
 30
0.0
 10
257.774722
 20
5.256389
 30
0.0
 10
257.951111
 20
9.454444
 30
0.0
  0
SPLINE
  5
258
100
AcDbEntity
  8
0
 62
7
100
AcDbSpline
 70
8
 71
3
 72
8
 73
4
 74
0
 40
0
 40
0
 40
0
 40
0
 40
1
 40
1
 40
1
 40
1
 10
257.951111
 20
9.454444
 30
0.0
 10
258.056944
 20
12.946944
 30
0.0
 10
258.127500
 20
13.158611
 30
0.0
 10
259.044722
 20
13.970000
 30
0.0
  0
SPLINE
  5
259
100
AcDbEntity
  8
0
 62
7
100
AcDbSpline
 70
8
 71
3
 72
8
 73
4
 74
0
 40
0
 40
0
 40
0
 40
0
 40
1
 40
1
 40
1
 40
1
 10
259.044722
 20
13.970000
 30
0.0
 10
260.455833
 20
15.169444
 30
0.0
 10
262.572500
 20
15.134167
 30
0.0
 10
263.701389
 20
13.899444
 30
0.0
  0
SPLINE
  5
25a
100
AcDbEntity
  8
0
 62
7
100
AcDbSpline
 70
8
 71
3
 72
8
 73
4
 74
0
 40
0
 40
0
 40
0
 40
0
 40
1
 40
1
 40
1
 40
1
 10
263.701389
 20
13.899444
 30
0.0
 10
264.195278
 20
13.370278
 30
0.0
 10
264.583333
 20
12.805833
 30
0.0
 10
264.583333
 20
12.664722
 30
0.0
  0
SPLINE
  5
25b
100
AcDbEntity
  8
0
 62
7
100
AcDbSpline
 70
8
 71
3
 72
8
 73
4
 74
0
 40
0
 40
0
 40
0
 40
0
 40
1
 40
1
 40
1
 40
1
 10
264.583333
 20
12.664722
 30
0.0
 10
264.583333
 20
12.488333
 30
0.0
 10
265.218333
 20
12.347222
 30
0.0
 10
265.994444
 20
12.347222
 30
0.0
  0
SPLINE
  5
25c
100
AcDbEntity
  8
0
 62
7
100
AcDbSpline
 70
8
 71
3
 72
8
 73
4
 74
0
 40
0
 40
0
 40
0
 40
0
 40
1
 40
1
 40
1
 40
1
 10
265.994444
 20
12.347222
 30
0.0
 10
267.123333
 20
12.347222
 30
0.0
 10
267.405556
 20
12.488333
 30
0.0
 10
267.405556
 20
13.017500
 30
0.0
  0
SPLINE
  5
25d
100
AcDbEntity
  8
0
 62
7
100
AcDbSpline
 70
8
 71
3
 72
8
 73
4
 74
0
 40
0
 40
0
 40
0
 40
0
 40
1
 40
1
 40
1
 40
1
 10
267.405556
 20
13.017500
 30
0.0
 10
267.405556
 20
13.864167
 30
0.0
 10
266.065000
 20
15.804444
 30
0.0
 10
264.865556
 20
16.686389
 30
0.0
  0
SPLINE
  5
25e
100
AcDbEntity
  8
0
 62
7
100
AcDbSpline
 70
8
 71
3
 72
8
 73
4
 74
0
 40
0
 40
0
 40
0
 40
0
 40
1
 40
1
 40
1
 40
1
 10
264.865556
 20
16.686389
 30
0.0
 10
263.630833
 20
17.603611
 30
0.0
 10
260.279444
 20
17.850556
 30
0.0
 10
258.762500
 20
17.145000
 30
0.0
  0
LWPOLYLINE
  5
25f
100
AcDbEntity
  8
0
 62
7
100
AcDbPolyline
 90
6
 70
0
 10
240.594444
 20
11.782778
 30
0.0
 10
240.594444
 20
17.638889
 30
0.0
 10
239.359722
 20
17.638889
 30
0.0
 10
238.125000
 20
17.638889
 30
0.0
 10
238.125000
 20
11.041944
 30
0.0
 10
238.125000
 20
11.041944
 30
0.0
  0
SPLINE
  5
260
100
AcDbEntity
  8
0
 62
7
100
AcDbSpline
 70
8
 71
3
 72
8
 73
4
 74
0
 40
0
 40
0
 40
0
 40
0
 40
1
 40
1
 40
1
 40
1
 10
273.861389
 20
16.898056
 30
0.0
 10
271.497778
 20
15.733889
 30
0.0
 10
270.792222
 20
14.252222
 30
0.0
 10
270.651111
 20
10.160000
 30
0.0
  0
SPLINE
  5
261
100
AcDbEntity
  8
0
 62
7
100
AcDbSpline
 70
8
 71
3
 72
8
 73
4
 74
0
 40
0
 40
0
 40
0
 40
0
 40
1
 40
1
 40
1
 40
1
 10
270.651111
 20
10.160000
 30
0.0
 10
270.439444
 20
5.397500
 30
0.0
 10
270.756944
 20
3.774722
 30
0.0
 10
272.097500
 20
2.222500
 30
0.0
  0
SPLINE
  5
262
100
AcDbEntity
  8
0
 62
7
100
AcDbSpline
 70
8
 71
3
 72
8
 73
4
 74
0
 40
0
 40
0
 40
0
 40
0
 40
1
 40
1
 40
1
 40
1
 10
272.097500
 20
2.222500
 30
0.0
 10
272.697222
 20
1.516944
 30
0.0
 10
273.720278
 20
0.740833
 30
0.0
 10
274.355278
 20
0.493889
 30
0.0
  0
SPLINE
  5
263
100
AcDbEntity
  8
0
 62
7
100
AcDbSpline
 70
8
 71
3
 72
8
 73
4
 74
0
 40
0
 40
0
 40
0
 40
0
 40
1
 40
1
 40
1
 40
1
 10
274.355278
 20
0.493889
 30
0.0
 10
277.636111
 20
-0.881944
 30
0.0
 10
281.834167
 20
0.917222
 30
0.0
 10
282.751389
 20
4.162778
 30
0.0
  0
SPLINE
  5
264
100
AcDbEntity
  8
0
 62
7
100
AcDbSpline
 70
8
 71
3
 72
8
 73
4
 74
0
 40
0
 40
0
 40
0
 40
0
 40
1
 40
1
 40
1
 40
1
 10
282.751389
 20
4.162778
 30
0.0
 10
282.963056
 20
4.868333
 30
0.0
 10
282.857222
 20
4.938889
 30
0.0
 10
281.622500
 20
4.938889
 30
0.0
  0
SPLINE
  5
265
100
AcDbEntity
  8
0
 62
7
100
AcDbSpline
 70
8
 71
3
 72
8
 73
4
 74
0
 40
0
 40
0
 40
0
 40
0
 40
1
 40
1
 40
1
 40
1
 10
281.622500
 20
4.938889
 30
0.0
 10
280.599444
 20
4.938889
 30
0.0
 10
280.035000
 20
4.691944
 30
0.0
 10
279.329444
 20
3.915833
 30
0.0
  0
SPLINE
  5
266
100
AcDbEntity
  8
0
 62
7
100
AcDbSpline
 70
8
 71
3
 72
8
 73
4
 74
0
 40
0
 40
0
 40
0
 40
0
 40
1
 40
1
 40
1
 40
1
 10
279.329444
 20
3.915833
 30
0.0
 10
278.024167
 20
2.540000
 30
0.0
 10
276.789444
 20
2.293056
 30
0.0
 10
275.413611
 20
3.104444
 30
0.0
  0
SPLINE
  5
267
100
AcDbEntity
  8
0
 62
7
100
AcDbSpline
 70
8
 71
3
 72
8
 73
4
 74
0
 40
0
 40
0
 40
0
 40
0
 40
1
 40
1
 40
1
 40
1
 10
275.413611
 20
3.104444
 30
0.0
 10
273.649722
 20
4.127500
 30
0.0
 10
273.367500
 20
5.009444
 30
0.0
 10
273.473333
 20
9.242778
 30
0.0
  0
SPLINE
  5
268
100
AcDbEntity
  8
0
 62
7
100
AcDbSpline
 70
8
 71
3
 72
8
 73
4
 74
0
 40
0
 40
0
 40
0
 40
0
 40
1
 40
1
 40
1
 40
1
 10
273.473333
 20
9.242778
 30
0.0
 10
273.579167
 20
12.664722
 30
0.0
 10
273.649722
 20
13.088056
 30
0.0
 10
274.425833
 20
13.899444
 30
0.0
  0
SPLINE
  5
269
100
AcDbEntity
  8
0
 62
7
100
AcDbSpline
 70
8
 71
3
 72
8
 73
4
 74
0
 40
0
 40
0
 40
0
 40
0
 40
1
 40
1
 40
1
 40
1
 10
274.425833
 20
13.899444
 30
0.0
 10
275.096111
 20
14.605000
 30
0.0
 10
275.625278
 20
14.816667
 30
0.0
 10
276.789444
 20
14.816667
 30
0.0
  0
SPLINE
  5
26a
100
AcDbEntity
  8
0
 62
7
100
AcDbSpline
 70
8
 71
3
 72
8
 73
4
 74
0
 40
0
 40
0
 40
0
 40
0
 40
1
 40
1
 40
1
 40
1
 10
276.789444
 20
14.816667
 30
0.0
 10
278.024167
 20
14.816667
 30
0.0
 10
278.447500
 20
14.640278
 30
0.0
 10
279.364722
 20
13.581944
 30
0.0
  0
SPLINE
  5
26b
100
AcDbEntity
  8
0
 62
7
100
AcDbSpline
 70
8
 71
3
 72
8
 73
4
 74
0
 40
0
 40
0
 40
0
 40
0
 40
1
 40
1
 40
1
 40
1
 10
279.364722
 20
13.581944
 30
0.0
 10
280.211389
 20
12.594167
 30
0.0
 10
280.705278
 20
12.347222
 30
0.0
 10
281.728333
 20
12.347222
 30
0.0
  0
SPLINE
  5
26c
100
AcDbEntity
  8
0
 62
7
100
AcDbSpline
 70
8
 71
3
 72
8
 73
4
 74
0
 40
0
 40
0
 40
0
 40
0
 40
1
 40
1
 40
1
 40
1
 10
281.728333
 20
12.347222
 30
0.0
 10
282.927778
 20
12.347222
 30
0.0
 10
282.998333
 20
12.382500
 30
0.0
 10
282.751389
 20
13.335000
 30
0.0
  0
SPLINE
  5
26d
100
AcDbEntity
  8
0
 62
7
100
AcDbSpline
 70
8
 71
3
 72
8
 73
4
 74
0
 40
0
 40
0
 40
0
 40
0
 40
1
 40
1
 40
1
 40
1
 10
282.751389
 20
13.335000
 30
0.0
 10
282.398611
 20
14.781389
 30
0.0
 10
280.881667
 20
16.580556
 30
0.0
 10
279.541111
 20
17.145000
 30
0.0
  0
SPLINE
  5
26e
100
AcDbEntity
  8
0
 62
7
100
AcDbSpline
 70
8
 71
3
 72
8
 73
4
 74
0
 40
0
 40
0
 40
0
 40
0
 40
1
 40
1
 40
1
 40
1
 10
279.541111
 20
17.145000
 30
0.0
 10
277.847778
 20
17.850556
 30
0.0
 10
275.590000
 20
17.744722
 30
0.0
 10
273.861389
 20
16.898056
 30
0.0
  0
LWPOLYLINE
  5
26f
100
AcDbEntity
  8
0
 62
7
100
AcDbPolyline
 90
1
 70
1
 10
258.762500
 20
17.145000
 30
0.0
  0
SPLINE
  5
270
100
AcDbEntity
  8
0
 62
7
100
AcDbSpline
 70
8
 71
3
 72
8
 73
4
 74
0
 40
0
 40
0
 40
0
 40
0
 40
1
 40
1
 40
1
 40
1
 10
286.631944
 20
17.215556
 30
0.0
 10
286.526111
 20
16.933333
 30
0.0
 10
286.490833
 20
13.017500
 30
0.0
 10
286.526111
 20
8.466667
 30
0.0
  0
LWPOLYLINE
  5
271
100
AcDbEntity
  8
0
 62
7
100
AcDbPolyline
 90
1
 70
1
 10
273.861389
 20
16.898056
 30
0.0
  0
SPLINE
  5
272
100
AcDbEntity
  8
0
 62
7
100
AcDbSpline
 70
8
 71
3
 72
8
 73
4
 74
0
 40
0
 40
0
 40
0
 40
0
 40
1
 40
1
 40
1
 40
1
 10
292.346944
 20
17.568333
 30
0.0
 10
288.043056
 20
17.638889
 30
0.0
 10
286.737778
 20
17.568333
 30
0.0
 10
286.631944
 20
17.215556
 30
0.0
  0
LWPOLYLINE
  5
273
100
AcDbEntity
  8
0
 62
7
100
AcDbPolyline
 90
23
 70
0
 10
286.526111
 20
8.466667
 30
0.0
 10
286.631944
 20
0.176389
 30
0.0
 10
292.276389
 20
0.176389
 30
0.0
 10
297.920833
 20
0.176389
 30
0.0
 10
298.026667
 20
1.305278
 30
0.0
 10
298.132500
 20
2.434167
 30
0.0
 10
293.793333
 20
2.540000
 30
0.0
 10
289.454167
 20
2.645833
 30
0.0
 10
289.348333
 20
5.221111
 30
0.0
 10
289.242500
 20
7.761111
 30
0.0
 10
292.981944
 20
7.761111
 30
0.0
 10
296.721389
 20
7.761111
 30
0.0
 10
296.615556
 20
8.925278
 30
0.0
 10
296.509722
 20
10.054167
 30
0.0
 10
292.911389
 20
10.160000
 30
0.0
 10
289.277778
 20
10.265833
 30
0.0
 10
289.277778
 20
12.523611
 30
0.0
 10
289.277778
 20
14.781389
 30
0.0
 10
293.616944
 20
14.887222
 30
0.0
 10
297.920833
 20
14.993056
 30
0.0
 10
297.920833
 20
16.227778
 30
0.0
 10
297.920833
 20
17.462500
 30
0.0
 10
292.346944
 20
17.568333
 30
0.0
  0
SPLINE
  5
274
100
AcDbEntity
  8
0
 62
7
100
AcDbSpline
 70
8
 71
3
 72
8
 73
4
 74
0
 40
0
 40
0
 40
0
 40
0
 40
1
 40
1
 40
1
 40
1
 10
304.059167
 20
16.933333
 30
0.0
 10
302.577500
 20
16.157222
 30
0.0
 10
301.625000
 20
14.428611
 30
0.0
 10
301.625000
 20
12.453056
 30
0.0
  0
SPLINE
  5
275
100
AcDbEntity
  8
0
 62
7
100
AcDbSpline
 70
8
 71
3
 72
8
 73
4
 74
0
 40
0
 40
0
 40
0
 40
0
 40
1
 40
1
 40
1
 40
1
 10
301.625000
 20
12.453056
 30
0.0
 10
301.625000
 20
9.701389
 30
0.0
 10
303.671111
 20
7.937500
 30
0.0
 10
307.375278
 20
7.514167
 30
0.0
  0
SPLINE
  5
276
100
AcDbEntity
  8
0
 62
7
100
AcDbSpline
 70
8
 71
3
 72
8
 73
4
 74
0
 40
0
 40
0
 40
0
 40
0
 40
1
 40
1
 40
1
 40
1
 10
307.375278
 20
7.514167
 30
0.0
 10
311.361667
 20
7.090833
 30
0.0
 10
312.102500
 20
4.021667
 30
0.0
 10
308.504167
 20
2.822222
 30
0.0
  0
SPLINE
  5
277
100
AcDbEntity
  8
0
 62
7
100
AcDbSpline
 70
8
 71
3
 72
8
 73
4
 74
0
 40
0
 40
0
 40
0
 40
0
 40
1
 40
1
 40
1
 40
1
 10
308.504167
 20
2.822222
 30
0.0
 10
307.516389
 20
2.504722
 30
0.0
 10
306.916667
 20
2.540000
 30
0.0
 10
305.364444
 20
2.963333
 30
0.0
  0
SPLINE
  5
278
100
AcDbEntity
  8
0
 62
7
100
AcDbSpline
 70
8
 71
3
 72
8
 73
4
 74
0
 40
0
 40
0
 40
0
 40
0
 40
1
 40
1
 40
1
 40
1
 10
305.364444
 20
2.963333
 30
0.0
 10
304.306111
 20
3.280833
 30
0.0
 10
303.318333
 20
3.704167
 30
0.0
 10
303.212500
 20
3.880556
 30
0.0
  0
SPLINE
  5
279
100
AcDbEntity
  8
0
 62
7
100
AcDbSpline
 70
8
 71
3
 72
8
 73
4
 74
0
 40
0
 40
0
 40
0
 40
0
 40
1
 40
1
 40
1
 40
1
 10
303.212500
 20
3.880556
 30
0.0
 10
302.824444
 20
4.515556
 30
0.0
 10
302.048333
 20
4.233333
 30
0.0
 10
301.272222
 20
3.175000
 30
0.0
  0
LWPOLYLINE
  5
27a
100
AcDbEntity
  8
0
 62
7
100
AcDbPolyline
 90
1
 70
1
 10
286.631944
 20
17.215556
 30
0.0
  0
SPLINE
  5
27b
100
AcDbEntity
  8
0
 62
7
100
AcDbSpline
 70
8
 71
3
 72
8
 73
4
 74
0
 40
0
 40
0
 40
0
 40
0
 40
1
 40
1
 40
1
 40
1
 10
302.401111
 20
1.199444
 30
0.0
 10
305.964167
 20
-0.599722
 30
0.0
 10
310.797222
 20
-0.246944
 30
0.0
 10
312.525833
 20
1.975556
 30
0.0
  0
SPLINE
  5
27c
100
AcDbEntity
  8
0
 62
7
100
AcDbSpline
 70
8
 71
3
 72
8
 73
4
 74
0
 40
0
 40
0
 40
0
 40
0
 40
1
 40
1
 40
1
 40
1
 10
312.525833
 20
1.975556
 30
0.0
 10
313.548889
 20
3.280833
 30
0.0
 10
313.760556
 20
5.256389
 30
0.0
 10
313.090278
 20
6.985000
 30
0.0
  0
SPLINE
  5
27d
100
AcDbEntity
  8
0
 62
7
100
AcDbSpline
 70
8
 71
3
 72
8
 73
4
 74
0
 40
0
 40
0
 40
0
 40
0
 40
1
 40
1
 40
1
 40
1
 10
313.090278
 20
6.985000
 30
0.0
 10
312.384722
 20
8.713611
 30
0.0
 10
310.903056
 20
9.736667
 30
0.0
 10
308.680556
 20
10.054167
 30
0.0
  0
SPLINE
  5
27e
100
AcDbEntity
  8
0
 62
7
100
AcDbSpline
 70
8
 71
3
 72
8
 73
4
 74
0
 40
0
 40
0
 40
0
 40
0
 40
1
 40
1
 40
1
 40
1
 10
308.680556
 20
10.054167
 30
0.0
 10
305.964167
 20
10.442222
 30
0.0
 10
304.941111
 20
10.900833
 30
0.0
 10
304.482500
 20
11.888611
 30
0.0
  0
SPLINE
  5
27f
100
AcDbEntity
  8
0
 62
7
100
AcDbSpline
 70
8
 71
3
 72
8
 73
4
 74
0
 40
0
 40
0
 40
0
 40
0
 40
1
 40
1
 40
1
 40
1
 10
304.482500
 20
11.888611
 30
0.0
 10
304.129722
 20
12.700000
 30
0.0
 10
304.165000
 20
12.946944
 30
0.0
 10
304.729444
 20
13.723056
 30
0.0
  0
SPLINE
  5
280
100
AcDbEntity
  8
0
 62
7
100
AcDbSpline
 70
8
 71
3
 72
8
 73
4
 74
0
 40
0
 40
0
 40
0
 40
0
 40
1
 40
1
 40
1
 40
1
 10
304.729444
 20
13.723056
 30
0.0
 10
305.258611
 20
14.463889
 30
0.0
 10
305.752500
 20
14.675556
 30
0.0
 10
307.198889
 20
14.746111
 30
0.0
  0
SPLINE
  5
281
100
AcDbEntity
  8
0
 62
7
100
AcDbSpline
 70
8
 71
3
 72
8
 73
4
 74
0
 40
0
 40
0
 40
0
 40
0
 40
1
 40
1
 40
1
 40
1
 10
307.198889
 20
14.746111
 30
0.0
 10
308.327778
 20
14.816667
 30
0.0
 10
309.386111
 20
14.640278
 30
0.0
 10
310.056389
 20
14.322778
 30
0.0
  0
SPLINE
  5
282
100
AcDbEntity
  8
0
 62
7
100
AcDbSpline
 70
8
 71
3
 72
8
 73
4
 74
0
 40
0
 40
0
 40
0
 40
0
 40
1
 40
1
 40
1
 40
1
 10
310.056389
 20
14.322778
 30
0.0
 10
310.656111
 20
14.005278
 30
0.0
 10
311.255833
 20
13.758333
 30
0.0
 10
311.396944
 20
13.758333
 30
0.0
  0
SPLINE
  5
283
100
AcDbEntity
  8
0
 62
7
100
AcDbSpline
 70
8
 71
3
 72
8
 73
4
 74
0
 40
0
 40
0
 40
0
 40
0
 40
1
 40
1
 40
1
 40
1
 10
311.396944
 20
13.758333
 30
0.0
 10
311.679167
 20
13.758333
 30
0.0
 10
312.913889
 20
15.592778
 30
0.0
 10
312.913889
 20
15.980833
 30
0.0
  0
SPLINE
  5
284
100
AcDbEntity
  8
0
 62
7
100
AcDbSpline
 70
8
 71
3
 72
8
 73
4
 74
0
 40
0
 40
0
 40
0
 40
0
 40
1
 40
1
 40
1
 40
1
 10
312.913889
 20
15.980833
 30
0.0
 10
312.913889
 20
16.086667
 30
0.0
 10
312.031944
 20
16.510000
 30
0.0
 10
310.973611
 20
16.898056
 30
0.0
  0
SPLINE
  5
285
100
AcDbEntity
  8
0
 62
7
100
AcDbSpline
 70
8
 71
3
 72
8
 73
4
 74
0
 40
0
 40
0
 40
0
 40
0
 40
1
 40
1
 40
1
 40
1
 10
310.973611
 20
16.898056
 30
0.0
 10
308.504167
 20
17.815278
 30
0.0
 10
305.752500
 20
17.850556
 30
0.0
 10
304.059167
 20
16.933333
 30
0.0
  0
LWPOLYLINE
  5
286
100
AcDbEntity
  8
0
 62
7
100
AcDbPolyline
 90
3
 70
0
 10
301.272222
 20
3.175000
 30
0.0
 10
300.531389
 20
2.151944
 30
0.0
 10
302.401111
 20
1.199444
 30
0.0
  0
SPLINE
  5
287
100
AcDbEntity
  8
0
 62
7
100
AcDbSpline
 70
8
 71
3
 72
8
 73
4
 74
0
 40
0
 40
0
 40
0
 40
0
 40
1
 40
1
 40
1
 40
1
 10
320.040000
 20
16.933333
 30
0.0
 10
317.570556
 20
15.416389
 30
0.0
 10
316.759167
 20
12.170833
 30
0.0
 10
318.311389
 20
9.877778
 30
0.0
  0
SPLINE
  5
288
100
AcDbEntity
  8
0
 62
7
100
AcDbSpline
 70
8
 71
3
 72
8
 73
4
 74
0
 40
0
 40
0
 40
0
 40
0
 40
1
 40
1
 40
1
 40
1
 10
318.311389
 20
9.877778
 30
0.0
 10
319.193333
 20
8.537222
 30
0.0
 10
321.733333
 20
7.443611
 30
0.0
 10
323.955833
 20
7.408333
 30
0.0
  0
SPLINE
  5
289
100
AcDbEntity
  8
0
 62
7
100
AcDbSpline
 70
8
 71
3
 72
8
 73
4
 74
0
 40
0
 40
0
 40
0
 40
0
 40
1
 40
1
 40
1
 40
1
 10
323.955833
 20
7.408333
 30
0.0
 10
327.413056
 20
7.373056
 30
0.0
 10
327.589444
 20
3.386667
 30
0.0
 10
324.132222
 20
2.681111
 30
0.0
  0
SPLINE
  5
28a
100
AcDbEntity
  8
0
 62
7
100
AcDbSpline
 70
8
 71
3
 72
8
 73
4
 74
0
 40
0
 40
0
 40
0
 40
0
 40
1
 40
1
 40
1
 40
1
 10
324.132222
 20
2.681111
 30
0.0
 10
322.897500
 20
2.434167
 30
0.0
 10
320.604444
 20
2.963333
 30
0.0
 10
319.369722
 20
3.774722
 30
0.0
  0
SPLINE
  5
28b
100
AcDbEntity
  8
0
 62
7
100
AcDbSpline
 70
8
 71
3
 72
8
 73
4
 74
0
 40
0
 40
0
 40
0
 40
0
 40
1
 40
1
 40
1
 40
1
 10
319.369722
 20
3.774722
 30
0.0
 10
318.558333
 20
4.303889
 30
0.0
 10
318.452500
 20
4.303889
 30
0.0
 10
317.605833
 20
3.421944
 30
0.0
  0
SPLINE
  5
28c
100
AcDbEntity
  8
0
 62
7
100
AcDbSpline
 70
8
 71
3
 72
8
 73
4
 74
0
 40
0
 40
0
 40
0
 40
0
 40
1
 40
1
 40
1
 40
1
 10
317.605833
 20
3.421944
 30
0.0
 10
316.441667
 20
2.257778
 30
0.0
 10
316.794444
 20
1.728611
 30
0.0
 10
319.475556
 20
0.705556
 30
0.0
  0
SPLINE
  5
28d
100
AcDbEntity
  8
0
 62
7
100
AcDbSpline
 70
8
 71
3
 72
8
 73
4
 74
0
 40
0
 40
0
 40
0
 40
0
 40
1
 40
1
 40
1
 40
1
 10
319.475556
 20
0.705556
 30
0.0
 10
325.790278
 20
-1.658056
 30
0.0
 10
331.258333
 20
2.151944
 30
0.0
 10
328.788889
 20
7.196667
 30
0.0
  0
SPLINE
  5
28e
100
AcDbEntity
  8
0
 62
7
100
AcDbSpline
 70
8
 71
3
 72
8
 73
4
 74
0
 40
0
 40
0
 40
0
 40
0
 40
1
 40
1
 40
1
 40
1
 10
328.788889
 20
7.196667
 30
0.0
 10
327.977500
 20
8.925278
 30
0.0
 10
325.825556
 20
10.230556
 30
0.0
 10
323.885278
 20
10.230556
 30
0.0
  0
SPLINE
  5
28f
100
AcDbEntity
  8
0
 62
7
100
AcDbSpline
 70
8
 71
3
 72
8
 73
4
 74
0
 40
0
 40
0
 40
0
 40
0
 40
1
 40
1
 40
1
 40
1
 10
323.885278
 20
10.230556
 30
0.0
 10
322.615278
 20
10.230556
 30
0.0
 10
320.957222
 20
10.830278
 30
0.0
 10
320.604444
 20
11.394722
 30
0.0
  0
SPLINE
  5
290
100
AcDbEntity
  8
0
 62
7
100
AcDbSpline
 70
8
 71
3
 72
8
 73
4
 74
0
 40
0
 40
0
 40
0
 40
0
 40
1
 40
1
 40
1
 40
1
 10
320.604444
 20
11.394722
 30
0.0
 10
320.075278
 20
12.241389
 30
0.0
 10
320.322222
 20
13.723056
 30
0.0
 10
321.098333
 20
14.252222
 30
0.0
  0
SPLINE
  5
291
100
AcDbEntity
  8
0
 62
7
100
AcDbSpline
 70
8
 71
3
 72
8
 73
4
 74
0
 40
0
 40
0
 40
0
 40
0
 40
1
 40
1
 40
1
 40
1
 10
321.098333
 20
14.252222
 30
0.0
 10
322.086111
 20
14.957778
 30
0.0
 10
324.555556
 20
14.957778
 30
0.0
 10
326.178333
 20
14.287500
 30
0.0
  0
SPLINE
  5
292
100
AcDbEntity
  8
0
 62
7
100
AcDbSpline
 70
8
 71
3
 72
8
 73
4
 74
0
 40
0
 40
0
 40
0
 40
0
 40
1
 40
1
 40
1
 40
1
 10
326.178333
 20
14.287500
 30
0.0
 10
327.377778
 20
13.793611
 30
0.0
 10
327.483611
 20
13.793611
 30
0.0
 10
328.118611
 20
14.569722
 30
0.0
  0
SPLINE
  5
293
100
AcDbEntity
  8
0
 62
7
100
AcDbSpline
 70
8
 71
3
 72
8
 73
4
 74
0
 40
0
 40
0
 40
0
 40
0
 40
1
 40
1
 40
1
 40
1
 10
328.118611
 20
14.569722
 30
0.0
 10
329.106389
 20
15.733889
 30
0.0
 10
328.965278
 20
16.051389
 30
0.0
 10
326.989722
 20
16.898056
 30
0.0
  0
SPLINE
  5
294
100
AcDbEntity
  8
0
 62
7
100
AcDbSpline
 70
8
 71
3
 72
8
 73
4
 74
0
 40
0
 40
0
 40
0
 40
0
 40
1
 40
1
 40
1
 40
1
 10
326.989722
 20
16.898056
 30
0.0
 10
324.626111
 20
17.885833
 30
0.0
 10
321.627500
 20
17.885833
 30
0.0
 10
320.040000
 20
16.933333
 30
0.0
  0
LWPOLYLINE
  5
295
100
AcDbEntity
  8
0
 62
7
100
AcDbPolyline
 90
1
 70
1
 10
304.059167
 20
16.933333
 30
0.0
  0
LWPOLYLINE
  5
296
100
AcDbEntity
  8
0
 62
7
100
AcDbPolyline
 90
1
 70
1
 10
320.040000
 20
16.933333
 30
0.0
  0
ENDSEC
  0
SECTION
  2
OBJECTS
  0
DICTIONARY
  5
C
330
0
100
AcDbDictionary
  3
ACAD_GROUP
350
D
  3
ACAD_MLINESTYLE
350
17
  0
DICTIONARY
  5
D
330
C
100
AcDbDictionary
  0
DICTIONARY
  5
1A
330
C
100
AcDbDictionary
  0
DICTIONARY
  5
17
330
C
100
AcDbDictionary
  3
STANDARD
350
18
  0
DICTIONARY
  5
19
330
C
100
AcDbDictionary
  0
ENDSEC
  0
EOF
